<?xml version="1.0" standalone="no"?>
<!DOCTYPE svg PUBLIC "-//W3C//DTD SVG 20010904//EN"
 "http://www.w3.org/TR/2001/REC-SVG-20010904/DTD/svg10.dtd">
<svg version="1.0" xmlns="http://www.w3.org/2000/svg"
 width="4724.000000pt" height="2480.000000pt" viewBox="0 0 4724.000000 2480.000000"
 preserveAspectRatio="xMidYMid meet">
<metadata>
Created by potrace 1.12, written by Peter Selinger 2001-2015
</metadata>
<g transform="translate(0.000000,2480.000000) scale(0.100000,-0.100000)"
fill="#000000" stroke="none">
<path d="M8944 23336 c-15 -21 -24 -24 -58 -19 -23 3 -47 10 -54 16 -11 8 -16
7 -23 -6 -10 -17 -40 -16 -102 3 -21 7 -29 6 -34 -5 -5 -16 -61 -12 -112 7
-19 7 -22 5 -17 -7 3 -10 -1 -15 -12 -15 -15 0 -15 -2 -2 -10 12 -8 11 -10 -6
-10 -20 0 -23 -8 -15 -53 0 -4 11 -12 24 -17 22 -9 22 -9 -3 -10 -22 -1 -23
-2 -9 -13 15 -11 15 -20 4 -81 -15 -77 -26 -96 -50 -76 -10 8 -15 9 -15 1 0
-6 -4 -11 -10 -11 -5 0 -7 6 -4 14 7 19 -26 15 -89 -9 -31 -11 -47 -24 -47
-35 0 -12 -17 -22 -60 -35 -33 -10 -60 -22 -60 -27 0 -4 5 -8 10 -8 6 0 10 -5
10 -11 0 -5 -4 -8 -9 -4 -5 3 -13 1 -16 -5 -4 -6 -3 -10 2 -9 19 3 25 -2 15
-14 -12 -15 -5 -28 23 -46 12 -8 14 -11 4 -8 -11 4 -16 0 -15 -10 1 -10 -13
-21 -34 -28 -19 -6 -35 -18 -35 -25 0 -8 -21 -20 -50 -28 -27 -8 -57 -16 -65
-19 -10 -3 -11 -6 -3 -11 17 -11 9 -44 -13 -53 -10 -4 -13 -8 -6 -8 22 -1 44
-28 29 -35 -6 -3 3 -5 20 -3 25 3 30 1 22 -9 -11 -13 5 -28 30 -29 8 0 18 -12
22 -27 7 -28 -3 -44 -20 -34 -10 7 -45 -43 -37 -51 3 -4 -7 -14 -23 -24 -16
-9 -35 -31 -42 -47 -7 -17 -17 -28 -21 -26 -4 3 -8 -2 -8 -10 0 -9 -4 -16 -8
-16 -5 0 -19 -9 -32 -20 -13 -11 -29 -20 -36 -20 -17 0 -22 -31 -10 -54 8 -13
8 -20 -1 -23 -6 -2 -23 -15 -38 -29 -14 -13 -30 -24 -34 -24 -5 0 -8 -11 -8
-25 0 -24 11 -30 45 -26 16 2 15 -4 -4 -23 -8 -9 -26 -16 -40 -16 -13 0 -24
-4 -24 -10 0 -5 -11 -12 -25 -16 -14 -4 -24 -9 -21 -12 3 -3 1 -11 -4 -18 -8
-8 -6 -17 5 -28 14 -13 14 -16 2 -16 -17 0 -30 -37 -16 -46 19 -11 7 -23 -31
-29 -47 -8 -60 -27 -60 -84 0 -40 -6 -46 -39 -41 -20 2 -61 -21 -61 -35 0 -6
-10 -17 -23 -24 -27 -15 -29 -48 -3 -66 11 -9 13 -15 7 -20 -6 -3 -14 1 -17 9
-3 9 -10 16 -16 16 -5 0 -6 -5 -2 -12 5 -7 3 -8 -5 -4 -18 12 -68 -13 -74 -36
-3 -11 -1 -31 6 -45 12 -26 -1 -43 -34 -43 -16 0 -35 -43 -30 -64 1 -5 -4 -4
-12 3 -36 30 -95 -40 -65 -77 10 -12 10 -14 1 -8 -8 4 -13 1 -13 -8 0 -9 -7
-16 -16 -16 -11 0 -14 -8 -10 -31 3 -24 2 -29 -7 -20 -17 17 -29 13 -18 -8 12
-21 21 -90 12 -89 -20 2 -31 -4 -31 -17 0 -14 -32 -37 -60 -41 -8 -2 -16 -8
-18 -13 -2 -6 -11 -11 -20 -11 -15 0 -15 -2 -2 -10 13 -9 13 -10 0 -10 -26 0
-40 -54 -24 -86 8 -15 12 -36 8 -46 -5 -17 -13 -19 -55 -16 -27 3 -47 3 -45 1
2 -2 -16 -24 -40 -49 -26 -28 -63 -87 -94 -149 -27 -57 -54 -105 -59 -107 -5
-1 -28 -31 -52 -65 -24 -34 -91 -122 -148 -195 -58 -73 -143 -182 -190 -243
-47 -60 -88 -112 -91 -115 -3 -3 -23 -29 -44 -58 -39 -54 -234 -304 -259 -333
-39 -44 -100 -139 -94 -146 4 -4 33 21 65 55 41 45 60 60 68 52 8 -8 29 13 75
72 78 101 140 170 147 164 7 -7 -151 -257 -215 -341 -21 -27 -63 -95 -63 -102
0 -5 -18 -40 -41 -78 -22 -39 -57 -101 -76 -139 -20 -37 -83 -132 -141 -210
-58 -77 -111 -155 -118 -173 -22 -50 -108 -183 -230 -353 -113 -159 -302 -411
-314 -420 -23 -17 -278 -374 -339 -473 -60 -99 -50 -103 19 -6 149 210 226
309 237 305 6 -3 57 60 113 140 128 182 179 246 189 240 8 -5 47 40 83 94 9
14 29 39 43 55 l27 30 -28 -50 c-15 -27 -43 -79 -62 -115 -19 -36 -48 -90 -65
-120 -22 -39 -25 -51 -12 -40 17 14 18 14 2 -17 -19 -36 -21 -47 -8 -38 20 12
20 -33 0 -89 -25 -71 -66 -154 -121 -244 -22 -37 -51 -95 -64 -129 -23 -62
-23 -63 -4 -63 11 0 20 5 20 10 0 6 5 10 11 10 6 0 -4 -26 -22 -57 -70 -124
-107 -193 -103 -193 5 0 -88 -184 -191 -379 -68 -130 -78 -155 -46 -127 14 13
21 14 27 5 4 -8 3 -10 -4 -5 -7 4 -12 3 -12 -3 0 -59 122 51 272 247 40 51 74
71 61 35 -4 -12 -3 -15 4 -8 16 16 145 193 216 297 37 53 72 98 77 100 6 2 37
44 68 95 56 90 150 211 165 212 4 1 7 -6 7 -14 0 -28 16 -16 96 72 43 48 98
108 122 133 24 25 76 81 115 124 120 132 214 222 223 213 3 -3 -4 -23 -17 -43
-19 -32 -20 -37 -5 -31 12 5 15 3 10 -6 -14 -23 -79 -112 -97 -132 -22 -23
-50 -75 -45 -81 3 -2 26 18 52 46 29 30 53 47 61 43 23 -8 19 -17 -38 -85 -29
-35 -88 -117 -131 -183 -78 -120 -179 -266 -269 -390 -27 -36 -47 -68 -44 -71
2 -3 28 24 58 58 94 111 143 163 162 170 22 9 24 15 -63 -117 -84 -125 -103
-162 -90 -170 6 -4 8 -10 5 -15 -3 -5 -1 -11 4 -14 13 -8 58 49 284 359 183
251 337 440 337 415 0 -18 -18 -49 -88 -152 -36 -54 -63 -100 -60 -103 3 -3
50 49 104 117 55 68 107 129 116 136 10 7 45 52 78 100 33 48 97 136 140 196
44 61 80 115 80 120 -1 11 -60 -50 -102 -105 -36 -49 -76 -89 -88 -89 -20 0
168 283 281 423 17 21 32 43 33 50 1 7 12 23 24 35 12 12 22 27 22 33 0 5 5 7
10 4 6 -3 10 -1 10 5 0 6 5 8 10 5 6 -3 10 0 10 7 0 8 11 29 25 48 14 19 25
30 25 24 0 -5 14 7 30 26 17 19 29 43 26 52 -2 11 1 15 10 11 7 -2 22 1 32 9
19 13 22 18 22 37 0 9 64 53 92 64 11 4 17 2 15 -6 -3 -17 54 -10 75 10 10 8
22 30 28 47 13 42 44 61 64 41 23 -23 28 -18 24 25 -4 44 -2 47 21 26 14 -12
21 -12 54 1 30 12 37 20 37 43 0 22 6 29 26 34 15 4 33 14 41 21 8 8 22 15 32
15 12 0 17 8 16 28 0 15 -4 25 -9 24 -10 -4 -26 17 -26 36 0 7 4 11 9 7 5 -3
16 2 24 10 9 8 21 15 27 15 6 0 8 5 4 11 -4 8 -1 8 12 1 23 -12 54 6 54 33 0
14 6 16 30 12 23 -5 30 -3 30 9 0 8 4 13 9 10 12 -8 9 58 -4 66 -6 5 -3 8 8 8
9 0 17 7 17 15 0 9 6 12 15 9 8 -3 21 1 30 9 17 18 20 37 5 37 -16 0 -11 25 9
49 12 14 25 20 32 15 7 -4 9 -3 6 3 -4 6 0 16 8 23 8 7 15 9 15 6 0 -4 9 2 20
12 20 19 20 64 0 70 -12 4 -14 32 -2 32 4 0 13 -5 20 -12 10 -10 11 -5 6 20
-5 27 -3 32 12 34 11 0 24 2 31 2 6 1 21 10 32 20 12 11 21 15 22 10 0 -5 4 1
10 14 7 18 13 21 25 14 18 -10 55 -4 65 10 3 4 17 9 32 10 32 3 50 44 26 59
-8 5 -10 9 -5 9 5 0 3 7 -4 15 -11 13 -10 15 1 11 18 -7 60 28 57 46 -2 7 3
12 10 10 6 -1 12 5 12 13 0 8 12 22 28 32 15 10 33 23 40 30 7 7 22 13 33 13
10 0 20 5 20 10 1 6 3 13 4 18 2 4 6 17 10 30 5 16 15 22 35 22 17 0 30 7 34
17 6 15 8 15 16 3 6 -8 10 -10 10 -4 0 7 11 9 25 6 14 -2 23 -7 20 -10 -3 -3
2 -13 10 -22 30 -34 18 -100 -19 -100 -6 0 -12 -18 -13 -40 -1 -22 -9 -55 -17
-74 -13 -31 -13 -36 5 -55 22 -23 35 -27 41 -10 2 7 9 5 17 -5 12 -14 10 -17
-17 -27 -19 -7 -32 -19 -34 -34 -6 -28 8 -46 30 -38 10 4 13 2 8 -5 -4 -7 -1
-12 8 -12 23 0 23 -128 1 -136 -8 -4 -15 -11 -15 -18 0 -6 -13 -19 -29 -29
-26 -15 -29 -21 -21 -47 5 -17 6 -30 3 -30 -3 0 0 -7 7 -15 6 -8 13 -26 15
-42 1 -15 8 -29 14 -31 6 -2 8 -8 5 -14 -3 -5 3 -12 14 -14 16 -5 19 -15 21
-74 2 -67 1 -68 -21 -63 -23 5 -23 5 -3 -12 16 -13 17 -16 3 -11 -16 5 -30 -7
-34 -29 -1 -5 -5 -17 -8 -26 -5 -10 4 -26 24 -46 28 -28 30 -32 16 -46 -9 -9
-13 -23 -10 -31 4 -9 1 -16 -6 -16 -9 0 -10 -3 -1 -14 9 -11 7 -15 -7 -18 -18
-5 -20 -10 -23 -62 -1 -17 -11 -28 -31 -37 -19 -8 -25 -15 -17 -19 6 -5 9 -17
6 -29 -3 -11 -2 -19 2 -18 10 3 91 -37 91 -45 0 -5 -5 -8 -11 -8 -5 0 -7 -4
-4 -10 3 -5 -3 -10 -13 -10 -22 0 -35 -32 -36 -88 -1 -23 -10 -43 -29 -62 -23
-23 -25 -29 -12 -34 9 -3 13 -11 10 -17 -4 -6 2 -13 14 -16 22 -5 29 -37 11
-48 -11 -7 6 -43 30 -62 13 -10 10 -14 -17 -23 -21 -8 -34 -19 -34 -31 -1 -10
-2 -25 -3 -31 -1 -7 7 -12 17 -12 9 1 17 -2 17 -7 0 -5 6 -9 14 -9 8 0 18 -5
22 -12 5 -8 2 -9 -9 -5 -25 9 -20 -6 8 -27 13 -10 22 -23 18 -29 -3 -6 -6 -42
-6 -80 1 -63 -1 -68 -18 -64 -15 4 -17 2 -9 -13 6 -10 10 -75 10 -143 0 -86 4
-133 14 -151 13 -26 14 -25 20 31 19 158 18 157 32 53 7 -52 14 -180 16 -285
l2 -190 6 155 6 155 4 -200 5 -200 2 189 c2 104 0 210 -5 236 -6 32 -5 54 2
67 7 10 14 110 18 243 3 124 10 248 15 275 l9 50 10 -85 c5 -51 7 -443 4 -970
-3 -487 -5 -1025 -5 -1197 0 -171 -2 -309 -5 -306 -3 2 -7 118 -10 256 l-6
252 -3 -305 c-3 -209 -6 -280 -11 -225 -4 44 -6 152 -5 240 2 128 1 150 -7
110 -9 -47 -18 -220 -36 -715 l-7 -205 -13 200 c-6 110 -13 234 -14 275 -1 69
-2 67 -8 -35 -4 -60 -15 -137 -24 -170 -10 -35 -16 -98 -16 -157 0 -59 -4 -98
-10 -98 -5 0 -10 -12 -10 -27 l-1 -28 -14 25 -14 25 -1 -37 c0 -29 3 -36 15
-32 9 4 15 0 15 -10 0 -9 -4 -16 -10 -16 -5 0 -10 -26 -11 -57 0 -42 -3 -52
-9 -38 -8 19 -9 19 -9 -3 -1 -13 -5 -20 -11 -17 -6 4 -10 -6 -10 -23 0 -25 6
-31 42 -45 23 -9 39 -20 35 -23 -3 -4 -2 -15 4 -25 8 -17 6 -19 -19 -19 -32 0
-61 -38 -46 -61 8 -13 10 -25 17 -82 4 -31 -17 -67 -39 -67 -8 0 -14 -6 -14
-12 0 -7 -13 -20 -28 -29 -17 -10 -28 -24 -27 -35 2 -27 14 -44 28 -39 7 3 23
-4 36 -14 23 -18 23 -18 5 -52 -10 -19 -19 -43 -21 -53 -2 -11 -8 -25 -14 -32
-6 -7 -8 -18 -4 -24 3 -5 -3 -23 -14 -39 -18 -25 -19 -30 -6 -35 8 -3 14 -11
13 -18 -2 -6 13 -17 32 -24 35 -12 42 -35 19 -58 -5 -6 -9 -17 -9 -25 0 -13
-47 -25 -223 -59 -123 -24 -229 -48 -237 -53 -11 -6 -6 -8 15 -4 17 2 102 14
190 25 88 11 176 23 195 26 19 3 32 2 28 -2 -4 -4 -1 -12 7 -18 11 -8 13 -19
7 -41 -8 -28 -13 -31 -68 -38 -32 -4 -67 -12 -76 -17 -10 -6 -35 -12 -55 -15
-88 -12 -163 -44 -108 -46 30 -1 30 -1 5 -9 -24 -8 -24 -8 -2 -9 12 -1 68 6
125 14 125 19 196 17 219 -7 14 -14 15 -18 4 -18 -8 0 -16 -4 -18 -9 -1 -5
-48 -17 -103 -26 -135 -23 -407 -93 -601 -156 -154 -49 -506 -180 -501 -185 1
-2 61 15 132 37 229 71 512 140 542 134 22 -5 25 -4 13 5 -12 9 -7 10 20 5 27
-5 32 -4 20 5 -12 9 -10 10 12 6 36 -8 94 4 76 16 -8 5 2 6 26 2 28 -5 37 -4
32 5 -4 6 -2 9 7 5 8 -3 76 6 152 20 160 30 176 31 169 12 -3 -7 3 -17 13 -21
11 -4 -50 -21 -167 -45 -683 -140 -1236 -325 -1735 -582 -267 -136 -410 -229
-775 -502 -441 -329 -679 -543 -1080 -972 -118 -125 -129 -127 -30 -3 46 57
70 92 54 76 -17 -15 -33 -25 -36 -22 -2 3 -13 -5 -24 -17 -10 -12 -13 -18 -5
-13 9 5 12 3 9 -6 -3 -8 -11 -13 -17 -11 -12 2 -70 -57 -70 -73 -1 -5 8 1 19
15 11 14 20 20 20 14 0 -14 -35 -46 -42 -38 -3 3 -34 -29 -68 -71 -34 -42 -65
-73 -68 -70 -4 3 0 10 8 15 8 6 11 10 7 10 -5 0 1 15 13 33 12 17 -26 -17 -84
-77 -58 -61 -106 -106 -106 -102 0 4 7 20 15 36 26 50 10 34 -38 -37 -194
-292 -378 -614 -433 -758 -12 -33 -39 -96 -60 -140 -101 -217 -229 -570 -328
-905 -36 -124 -31 -76 8 80 30 119 98 328 126 385 5 11 30 72 54 135 25 63 61
153 81 200 52 122 55 130 49 130 -8 0 -108 -212 -165 -350 -27 -63 -49 -110
-49 -105 -1 40 154 552 187 620 57 112 268 483 302 530 21 28 58 88 83 135
117 215 293 441 580 743 140 148 172 190 88 116 -24 -21 -48 -39 -53 -39 -4 0
-5 -4 -2 -10 3 -5 1 -10 -6 -10 -7 0 -29 -15 -49 -32 -19 -18 -8 -5 25 30 98
102 49 70 -70 -46 -135 -131 -262 -270 -356 -388 -81 -101 -111 -134 -84 -91
23 36 10 49 -16 17 -14 -17 -12 -10 6 25 l27 50 -53 -56 c-132 -138 -395 -624
-597 -1104 -28 -66 -77 -176 -110 -245 -33 -69 -82 -172 -109 -230 -53 -112
-78 -144 -93 -120 -5 8 -6 18 -4 22 3 4 -5 4 -18 -1 -28 -10 -79 -146 -174
-458 -36 -120 -70 -220 -75 -223 -12 -8 -70 -269 -114 -520 -36 -203 -59 -276
-55 -175 2 28 2 68 0 90 -2 37 -3 34 -15 -28 -8 -37 -17 -78 -21 -90 -14 -41
-23 51 -13 132 39 322 120 729 215 1091 5 17 3 22 -4 15 -5 -5 -34 -93 -62
-195 -60 -211 -74 -243 -66 -155 l5 60 -15 -40 c-27 -73 -101 -381 -130 -540
-49 -276 -104 -728 -104 -861 l0 -82 -52 0 c-29 -1 -62 -2 -73 -2 -62 -4 -106
4 -126 23 l-22 20 -17 -23 c-17 -22 -18 -22 -28 -4 -10 18 -11 18 -24 1 -11
-15 -21 -17 -51 -12 -21 4 -39 11 -42 15 -3 5 -17 2 -32 -5 -19 -10 -29 -11
-34 -3 -4 6 -12 7 -18 3 -7 -4 -18 -2 -25 4 -21 17 -79 19 -98 3 -10 -8 -22
-11 -30 -6 -21 14 -78 12 -78 -2 0 -8 -14 -11 -45 -8 -32 3 -47 0 -50 -9 -7
-17 -42 -19 -49 -2 -3 9 -16 12 -43 9 -53 -7 -62 -8 -113 -4 -31 3 -44 0 -43
-8 4 -15 -14 -16 -23 -1 -3 6 -16 8 -28 4 -40 -12 -71 -13 -83 -3 -7 5 -17 6
-24 2 -6 -4 -35 -7 -63 -8 -28 -1 -56 -5 -63 -9 -7 -4 -13 0 -15 10 -2 14 -15
18 -62 19 -34 1 -62 7 -66 14 -6 9 -10 8 -17 -5 -7 -12 -13 -14 -17 -6 -4 6
-20 11 -35 11 -17 0 -37 10 -51 25 -13 14 -30 23 -37 21 -7 -3 -12 -2 -12 2 4
25 -3 34 -21 29 -12 -3 -33 1 -48 9 -35 18 -42 18 -42 -2 0 -13 -7 -15 -35
-10 -20 4 -35 3 -35 -3 0 -5 -15 -13 -32 -16 -18 -4 -41 -14 -50 -23 -12 -10
-18 -11 -18 -3 0 9 -5 9 -20 1 -11 -6 -20 -8 -20 -5 0 4 -12 -2 -27 -13 -27
-19 -149 -45 -266 -57 -32 -4 -55 -11 -51 -16 3 -5 -22 -9 -61 -8 -36 1 -69
-1 -72 -5 -7 -6 44 -10 90 -7 16 1 34 -2 40 -7 18 -14 66 -23 221 -38 37 -4
63 -10 56 -14 -9 -6 -9 -9 1 -13 8 -3 3 -6 -11 -6 -14 -1 -31 -5 -39 -10 -16
-11 -2 -21 41 -30 16 -3 28 -9 26 -14 -4 -10 54 -44 83 -49 13 -2 23 -9 22
-15 -2 -10 51 -30 69 -25 5 1 8 -8 8 -21 0 -12 5 -29 10 -37 9 -13 11 -13 20
0 5 8 10 21 10 28 0 20 16 14 48 -17 18 -19 33 -26 42 -21 7 5 9 13 4 21 -6
11 -5 12 7 2 15 -12 48 -21 47 -13 -3 13 24 50 37 50 8 0 15 7 15 15 0 8 8 15
18 15 10 0 22 3 26 8 4 4 20 8 34 9 15 1 59 7 97 13 39 6 90 14 115 17 54 8
44 10 -83 18 -57 4 -97 11 -97 17 0 8 37 9 117 4 65 -4 190 -9 278 -12 88 -2
198 -11 245 -20 155 -29 341 -52 585 -73 l80 -7 -77 -8 c-47 -5 -141 -4 -235
3 -106 7 -160 8 -167 1 -18 -18 18 -41 78 -49 31 -4 59 -11 63 -16 5 -4 -4 -6
-19 -3 -15 3 -33 1 -40 -3 -9 -6 -8 -9 7 -9 45 -1 -15 -21 -82 -27 -38 -3 -70
-10 -73 -14 -3 -5 -55 -13 -114 -18 -125 -11 -166 -30 -68 -32 34 -1 67 -3 72
-4 6 -1 22 -3 36 -4 14 0 23 -5 20 -10 -3 -4 65 -8 151 -8 108 0 158 -4 161
-12 2 -6 15 -11 29 -11 43 0 24 -33 -27 -47 -25 -6 -36 -12 -25 -13 23 -1 -49
-29 -80 -31 -32 -1 96 -28 139 -28 30 -1 37 -4 32 -16 -3 -10 1 -15 14 -15 10
0 22 -5 25 -10 3 -6 47 -10 96 -10 61 0 88 -3 84 -11 -4 -6 -45 -9 -106 -8
-55 1 -103 -1 -106 -5 -4 -3 -50 -6 -103 -6 -71 0 -101 -4 -109 -14 -15 -17
31 -24 262 -35 92 -5 171 -11 174 -15 4 -3 -3 -6 -14 -6 -11 0 -20 -7 -20 -15
0 -8 8 -15 18 -15 9 0 19 -7 22 -15 3 -8 15 -12 25 -10 15 3 19 -1 15 -16 -3
-11 -14 -25 -24 -32 -21 -15 -16 -57 7 -57 8 0 14 -7 14 -15 0 -8 -4 -15 -8
-15 -4 0 -8 -12 -7 -28 0 -17 6 -26 14 -24 8 2 17 -1 20 -5 3 -5 21 -19 39
-32 35 -25 38 -33 18 -53 -16 -16 -26 -77 -14 -84 4 -3 8 -12 8 -21 0 -9 8
-22 17 -29 17 -13 17 -15 -4 -31 -17 -14 -23 -32 -27 -75 -2 -32 -1 -58 3 -58
12 0 28 -42 26 -68 -1 -13 4 -22 13 -22 10 0 13 -7 9 -22 -7 -26 8 -58 28 -58
19 0 19 -34 0 -54 -10 -9 -11 -17 -5 -21 6 -4 8 -11 4 -16 -8 -13 42 -59 63
-59 12 0 5 -11 -20 -34 -22 -20 -37 -43 -37 -57 0 -13 -4 -30 -9 -38 -12 -19
23 -51 55 -51 28 0 23 -26 -7 -35 -15 -5 -17 -10 -10 -19 6 -7 8 -16 4 -19 -6
-6 10 -11 28 -9 4 1 15 -8 24 -18 10 -11 14 -20 9 -20 -5 0 6 -9 24 -20 18
-11 30 -25 27 -30 -3 -6 -1 -10 4 -10 6 0 11 -4 11 -10 0 -5 -9 -10 -21 -10
-11 0 -18 -4 -15 -9 3 -5 0 -11 -8 -14 -16 -6 -15 -52 2 -69 7 -7 12 -28 12
-48 0 -29 5 -40 25 -50 13 -7 22 -17 19 -22 -3 -4 1 -8 8 -8 10 0 10 -2 -1 -9
-35 -23 1 -97 41 -85 13 4 23 -7 40 -45 13 -28 30 -51 38 -51 8 0 0 -10 -17
-21 -18 -12 -33 -28 -34 -37 -1 -43 -9 -75 -21 -90 -7 -9 -8 -14 -3 -9 4 4 17
-1 27 -10 17 -15 20 -15 28 -3 6 8 10 11 10 5 0 -5 5 -2 11 8 11 18 39 24 39
7 0 -5 14 -10 32 -10 l31 0 -24 -21 c-13 -11 -24 -25 -24 -30 0 -5 -10 -16
-22 -24 -17 -12 -20 -20 -14 -38 5 -12 15 -23 22 -23 8 -1 22 -2 32 -3 20 -1
22 -15 4 -33 -8 -6 -11 -22 -9 -35 4 -21 8 -23 48 -18 56 6 77 -1 64 -24 -17
-33 -8 -61 25 -70 29 -7 32 -14 24 -55 -3 -13 4 -24 19 -32 l23 -11 -25 -16
c-19 -13 -24 -23 -21 -49 6 -63 21 -86 52 -82 15 1 35 -3 43 -11 8 -7 26 -15
40 -17 19 -2 25 -9 26 -30 1 -16 -2 -28 -7 -28 -4 0 -10 -14 -14 -31 -5 -23
-2 -38 13 -59 12 -15 19 -39 18 -54 -2 -14 0 -26 4 -26 4 0 10 -8 13 -19 3
-11 17 -21 40 -25 23 -4 37 -13 40 -26 3 -11 1 -20 -3 -20 -16 0 -16 -35 0
-47 12 -9 13 -16 4 -30 -13 -22 -1 -45 29 -56 13 -5 16 -11 9 -23 -5 -9 -7
-25 -4 -36 3 -14 11 -18 33 -14 15 2 32 7 37 10 15 9 62 -33 55 -49 -3 -8 -9
-13 -13 -10 -12 8 -19 -23 -17 -81 0 -39 5 -54 20 -63 15 -10 22 -9 38 5 10 9
19 23 19 30 0 15 69 -16 89 -40 10 -12 6 -18 -26 -35 -21 -11 -33 -20 -26 -21
7 0 10 -7 7 -15 -3 -8 2 -37 11 -66 13 -38 21 -50 34 -46 9 2 26 -8 41 -25 24
-28 63 -37 75 -18 5 8 11 7 21 -1 19 -16 18 -38 -5 -57 -19 -16 -19 -19 -4
-54 13 -33 18 -37 46 -34 50 6 57 -1 50 -50 -4 -30 -2 -44 6 -44 6 0 11 -13
11 -29 0 -34 34 -49 57 -25 19 18 26 18 39 -4 17 -27 228 -274 258 -301 44
-41 29 -8 -31 65 -31 38 -45 59 -31 46 13 -12 28 -19 32 -15 4 5 6 3 4 -2 -3
-12 117 -127 172 -166 l35 -24 -23 38 c-17 30 14 7 139 -105 89 -79 176 -155
193 -169 17 -15 49 -43 71 -64 138 -127 485 -365 744 -510 216 -120 258 -141
366 -181 106 -40 129 -43 63 -8 -56 29 -61 36 -16 23 18 -5 35 -9 37 -9 2 0
-21 17 -52 37 -54 36 -72 57 -27 33 12 -6 34 -13 49 -15 16 -2 75 -22 132 -45
164 -66 522 -190 546 -190 2 0 3 4 3 9 0 5 -14 14 -30 21 -40 16 -33 22 10 10
21 -6 38 -6 43 -1 6 6 19 6 35 0 13 -5 26 -8 28 -6 2 1 -88 41 -199 87 -318
132 -574 263 -574 295 0 18 -1 18 34 5 l28 -10 -25 20 c-14 12 -89 63 -166
115 -126 84 -165 118 -150 132 2 3 14 -1 26 -7 29 -16 35 -7 10 15 -20 18 -28
41 -11 30 16 -9 22 13 10 33 -7 10 -34 34 -60 52 -27 18 -49 35 -49 37 0 6 18
-5 71 -44 26 -18 55 -33 66 -33 10 0 39 -13 64 -28 76 -48 76 -48 60 -29 -29
36 1 28 86 -23 48 -29 93 -55 98 -58 22 -11 -17 20 -173 138 -89 67 -165 127
-169 133 -4 6 8 1 26 -12 18 -13 34 -21 37 -19 2 3 -35 37 -83 77 -49 40 -152
136 -231 213 l-143 141 5 53 c2 29 7 57 10 63 8 12 -15 30 -39 30 -43 1 -55 5
-52 15 5 15 -33 43 -74 54 -19 5 -33 15 -31 22 1 6 -3 18 -9 26 -9 11 -8 14 5
14 9 0 16 5 16 11 0 5 6 7 13 4 6 -4 3 1 -7 9 -11 9 -28 16 -38 16 -22 0 -36
29 -19 39 13 8 5 61 -9 61 -4 0 -10 14 -14 30 -4 24 -11 30 -30 30 -19 0 -26
-7 -32 -33 -4 -17 -9 -35 -10 -39 -1 -5 -2 -11 -3 -15 -1 -5 -9 4 -19 19 -9
14 -30 37 -46 49 -60 47 -379 495 -466 654 -38 69 -32 65 35 -25 67 -89 128
-160 138 -160 5 0 -1 15 -12 33 -11 19 -17 38 -13 42 4 5 3 6 -3 3 -5 -3 -19
6 -29 20 -11 14 -14 22 -8 18 13 -8 16 5 4 19 -4 6 21 -19 56 -55 74 -75 77
-80 -90 167 -158 235 -251 392 -276 467 -11 31 -15 53 -9 47 22 -22 28 -10 9
17 -24 35 -34 62 -22 62 20 0 -3 74 -51 170 -27 54 -66 144 -88 200 -37 96
-38 101 -15 79 43 -40 35 -14 -21 67 -30 43 -55 85 -55 92 0 7 -13 39 -29 70
-34 65 -60 167 -70 266 -6 62 -6 67 7 47 8 -11 18 -21 23 -21 13 0 -1 50 -22
81 -25 35 -60 119 -51 120 4 1 10 1 15 0 11 -2 3 89 -9 97 -27 17 -72 141 -84
227 -4 33 -11 70 -15 81 -5 18 -1 23 23 32 22 7 33 7 42 -1 10 -9 12 -7 7 10
-3 13 -1 26 4 29 5 3 7 9 4 14 -3 5 8 11 23 15 25 5 28 10 24 35 -2 17 -8 30
-12 30 -13 0 -5 46 12 72 13 19 13 27 3 41 -7 9 -20 17 -29 17 -20 0 -22 45
-3 57 19 11 28 41 15 49 -7 4 -5 10 6 16 9 5 15 19 14 33 -1 13 -5 22 -9 19
-4 -2 -10 3 -13 12 -4 11 1 18 14 21 11 3 20 10 20 15 0 17 74 -1 92 -23 10
-12 19 -15 23 -9 9 14 43 12 52 -3 13 -21 51 -27 81 -11 34 18 42 18 42 -1 0
-9 9 -15 24 -15 14 0 28 -5 31 -11 4 -6 13 -8 20 -5 7 2 22 -2 33 -10 17 -12
22 -12 32 1 7 8 16 13 20 10 4 -3 10 1 13 9 4 10 26 14 84 14 52 -1 71 -3 58
-9 -13 -5 0 -7 35 -3 39 3 51 2 40 -5 -11 -8 -6 -11 23 -11 48 0 127 -20 127
-31 0 -5 7 -9 15 -9 10 0 15 -10 15 -33 0 -31 2 -33 32 -33 27 1 34 6 42 31 6
17 11 32 13 34 5 7 95 11 105 5 6 -4 25 -8 42 -10 17 -1 32 -7 34 -13 2 -6 9
-11 16 -11 6 0 19 -9 29 -20 20 -24 67 -27 67 -5 0 13 16 15 111 10 61 -2 114
-7 118 -9 11 -7 211 -26 317 -30 65 -2 96 1 109 10 10 8 43 14 72 14 47 0 55
-3 65 -25 6 -14 16 -21 22 -17 6 3 18 7 26 7 8 0 14 8 14 17 -1 10 2 18 8 18
5 0 6 5 2 11 -8 13 55 10 73 -4 16 -12 138 -10 178 2 27 8 28 9 6 10 -13 1
-21 4 -18 7 4 4 73 6 153 5 135 -2 146 -1 140 15 -4 10 0 25 10 35 16 18 16
19 -7 19 -13 0 -67 -7 -119 -15 -134 -21 -160 -20 -160 5 0 17 -7 20 -52 20
-61 0 -106 19 -48 20 31 1 27 4 -35 25 -38 13 -61 24 -50 25 l20 1 -20 9 c-15
6 -5 9 34 9 115 2 34 13 -145 20 -116 4 -197 12 -209 19 -11 7 -56 16 -100 21
l-80 8 80 2 c49 1 75 5 66 10 -9 6 -10 11 -2 15 18 11 13 26 -8 26 -11 0 -23
5 -26 10 -3 6 0 10 8 10 8 0 20 7 27 15 21 25 -29 28 -369 23 -316 -5 -335 -2
-121 21 l75 8 -70 3 -70 3 75 8 c41 4 172 5 290 1 240 -7 227 -7 365 8 83 9
145 8 365 -9 146 -12 375 -26 510 -32 135 -6 247 -15 250 -19 3 -5 98 -12 210
-16 113 -4 194 -11 180 -15 -23 -6 -22 -7 9 -8 19 -1 31 -4 28 -7 -4 -4 -116
-7 -249 -6 -134 0 -229 -4 -213 -8 l30 -8 -30 -2 c-78 -5 32 -18 215 -24 107
-5 224 -14 260 -21 63 -12 58 -13 -126 -14 -157 -1 -194 -4 -204 -16 -11 -13
-7 -15 24 -15 20 0 36 -4 36 -9 0 -21 -34 -34 -85 -32 -29 1 -56 -3 -60 -9 -4
-6 13 -11 47 -12 l53 -1 -60 -7 -60 -7 65 -2 c177 -7 154 -18 -40 -20 l-205
-2 39 -19 c30 -15 62 -20 130 -21 76 -1 84 -3 51 -10 -22 -4 -83 -8 -135 -9
-116 0 -170 -9 -170 -25 0 -8 -6 -16 -12 -19 -7 -3 5 -5 27 -6 259 -6 548 -27
540 -40 -3 -4 2 -10 10 -14 8 -3 17 -1 20 4 4 6 41 9 83 9 59 -1 69 -3 42 -9
-20 -4 13 -6 75 -4 69 2 95 0 70 -5 -40 -7 -40 -7 19 -12 33 -2 93 -2 133 1
41 3 84 2 95 -3 12 -4 24 -4 27 1 3 6 44 13 91 16 64 5 81 4 70 -4 -24 -18
149 -7 180 11 14 9 31 15 38 14 6 -2 15 -3 20 -4 4 -1 13 -5 21 -10 12 -8 12
-12 2 -25 -10 -12 -11 -16 -1 -16 7 0 10 -8 7 -19 -2 -10 -1 -25 4 -32 5 -8 2
-20 -6 -29 -9 -10 -11 -21 -5 -30 5 -8 5 -21 -1 -31 -6 -12 -5 -22 4 -31 7 -7
13 -29 15 -48 1 -19 7 -65 13 -101 9 -60 8 -70 -11 -103 -11 -21 -18 -42 -14
-47 3 -6 -2 -19 -11 -29 -15 -17 -15 -19 7 -26 l23 -7 -24 -9 c-19 -7 -21 -11
-11 -23 7 -8 19 -15 26 -15 12 0 12 -4 2 -21 -13 -21 -6 -32 41 -59 12 -6 12
-13 -3 -44 -10 -21 -24 -40 -32 -43 -21 -8 -17 -33 5 -33 11 0 23 -5 27 -12 5
-8 2 -9 -9 -5 -11 4 -20 -1 -27 -13 -8 -14 -5 -25 14 -47 25 -30 23 -57 -8
-82 -18 -15 -21 -46 -7 -56 6 -3 8 -34 5 -69 -3 -51 -1 -65 11 -70 14 -5 13
-10 -5 -34 -19 -26 -20 -33 -10 -72 39 -145 54 -456 21 -435 -5 2 -12 -12 -16
-32 -9 -49 5 -1082 16 -1108 7 -18 8 -18 9 5 2 21 3 19 11 -10 5 -19 9 -217
10 -440 1 -351 10 -619 19 -555 2 15 4 13 10 -10 6 -24 8 -15 10 40 2 69 3 69
11 25 4 -25 8 -74 9 -110 1 -36 4 -59 7 -52 2 6 9 10 14 6 5 -3 7 112 3 290
-5 259 -3 298 10 318 15 21 16 5 16 -202 0 -224 24 -515 41 -504 11 6 15 -15
30 -149 7 -59 14 -105 17 -102 3 3 8 22 12 42 13 82 30 -266 36 -747 3 -272 9
-513 14 -535 5 -22 12 -78 14 -125 3 -47 16 -206 30 -355 13 -148 27 -318 30
-376 5 -75 12 -118 26 -147 11 -23 21 -51 22 -64 5 -86 16 168 17 424 0 169 5
318 10 331 5 13 14 120 21 238 13 244 34 449 54 529 l14 55 0 -43 c-2 -82 9
-51 16 45 7 90 32 309 55 478 6 39 15 162 21 275 6 113 18 238 26 279 8 40 14
89 14 108 0 19 4 32 9 29 4 -3 6 6 3 19 -3 16 0 25 8 25 13 0 11 -69 -10 -460
-11 -192 -12 -393 -4 -415 4 -8 11 -12 17 -8 7 4 8 -20 4 -78 -3 -46 -11 -172
-17 -279 -7 -107 -18 -249 -26 -315 -72 -586 -71 -573 -54 -545 4 9 18 92 29
185 38 306 41 328 46 333 3 3 5 -2 5 -12 0 -14 2 -15 13 -4 9 9 17 74 26 203
7 105 17 228 22 275 5 47 22 224 38 393 16 169 32 311 36 315 4 4 5 -83 1
-193 -9 -296 -15 -734 -9 -701 3 20 7 25 13 17 11 -19 18 58 31 339 6 135 16
253 21 263 24 46 58 662 58 1066 0 85 3 151 7 148 17 -17 31 59 32 170 1 65 5
143 10 173 16 92 23 293 12 320 -9 24 -10 24 -10 3 -1 -12 -5 -24 -10 -27 -11
-7 -35 -314 -28 -373 3 -26 1 -72 -4 -103 -5 -30 -12 -95 -15 -145 -4 -58 -9
-83 -14 -70 -6 14 -9 4 -12 -35 -9 -120 -7 880 2 1100 12 292 31 491 41 440 4
-19 11 -48 17 -65 9 -29 9 -28 21 30 7 33 17 68 22 78 5 10 12 66 16 126 5
100 4 110 -15 129 -19 19 -19 23 -7 59 19 51 18 73 -2 95 -13 14 -14 21 -5 30
7 7 12 21 12 33 0 12 5 26 12 33 7 7 8 12 4 12 -5 0 -3 6 3 14 18 21 -6 32
-28 12 -22 -20 -31 -20 -31 0 0 9 11 25 25 36 20 15 23 23 15 38 -8 14 -6 22
7 32 18 13 31 44 15 34 -5 -3 -14 10 -19 29 -7 22 -8 37 -2 41 6 4 6 11 0 18
-6 7 -8 16 -4 20 4 3 6 24 5 46 -2 30 1 40 12 40 11 0 15 8 14 25 -1 14 -6 25
-10 25 -4 0 -8 7 -8 15 0 8 -4 15 -9 15 -13 0 -7 59 7 65 16 6 15 31 -3 59
-14 21 -14 28 1 67 28 74 46 114 57 121 7 4 7 11 -1 21 -7 8 -11 19 -10 25 2
5 -12 26 -29 45 -37 41 -39 47 -18 47 8 0 15 6 15 14 0 8 13 18 28 24 22 8 28
16 27 38 0 21 -5 29 -18 28 -9 -1 -17 2 -17 7 0 5 -6 6 -14 3 -7 -3 -21 2 -30
12 -18 18 -18 49 1 49 21 0 27 15 29 68 2 29 5 63 7 77 3 14 5 28 6 33 0 4 7
7 14 7 6 0 25 18 41 39 23 32 34 39 62 39 19 0 34 -4 34 -9 0 -5 7 -9 15 -9 8
0 24 -10 35 -22 20 -21 21 -21 15 -3 -6 19 -6 19 8 3 8 -10 20 -18 26 -18 7 0
17 -12 24 -27 15 -34 41 -36 84 -5 21 15 30 28 26 38 -5 14 -2 14 32 0 21 -9
39 -16 41 -16 2 0 4 -8 4 -17 0 -11 3 -14 8 -8 4 6 16 11 27 10 13 0 25 11 34
32 8 18 19 33 23 33 5 0 7 -4 4 -8 -3 -5 10 -24 29 -42 19 -19 35 -30 35 -25
0 5 11 -2 24 -14 17 -16 30 -20 50 -15 28 7 37 34 11 34 -8 0 -15 5 -15 10 0
6 -7 10 -15 10 -17 0 -20 16 -4 25 6 4 35 13 66 20 43 10 86 10 199 2 120 -9
147 -9 154 2 6 11 49 12 246 3 409 -20 648 -24 664 -13 12 9 10 11 -10 12 -22
0 -23 1 -6 8 18 7 18 8 2 14 -10 4 -49 7 -87 7 -77 0 -111 12 -103 35 5 13
-18 15 -167 16 -164 1 -475 14 -436 17 11 1 15 7 11 14 -5 8 38 9 177 3 220
-10 230 -10 434 -2 88 4 210 4 270 -1 61 -5 94 -10 74 -11 -45 -1 -70 -25 -42
-39 10 -5 52 -15 93 -22 65 -12 71 -15 45 -21 -27 -6 -25 -7 15 -8 31 -1 40
-4 31 -10 -20 -13 52 -19 319 -27 241 -7 249 -8 470 -17 80 -4 291 -8 470 -9
179 -1 333 -6 343 -11 12 -5 23 -4 32 3 10 8 16 6 27 -8 16 -24 56 -22 74 3
10 13 11 22 3 32 -6 7 -9 23 -5 36 4 16 0 26 -14 35 -35 21 -22 32 39 32 59 0
91 -17 76 -40 -3 -5 1 -13 10 -17 35 -13 64 -49 58 -71 -4 -15 -1 -22 10 -22
8 0 17 -6 20 -14 4 -9 14 -12 26 -9 17 4 21 1 22 -18 0 -22 1 -23 9 -4 l8 20
8 -20 c4 -11 15 -25 23 -32 9 -7 12 -13 7 -13 -4 0 0 -12 9 -27 15 -23 15 -25
2 -20 -22 8 -32 -10 -15 -30 12 -15 9 -16 -29 -10 -38 6 -42 5 -37 -10 4 -13
0 -12 -15 6 -12 13 -21 18 -21 12 0 -7 -4 -10 -10 -6 -5 3 -7 12 -3 20 3 8 0
15 -7 15 -7 0 -19 8 -27 17 -8 10 -12 13 -9 6 4 -6 0 -13 -6 -15 -10 -4 -7
-20 11 -63 24 -57 41 -83 90 -133 12 -14 28 -38 33 -54 9 -25 7 -32 -11 -49
-11 -11 -21 -17 -21 -13 0 4 -8 -3 -19 -14 -23 -27 -35 -28 -21 -2 9 17 8 19
-7 13 -10 -4 -25 -15 -34 -25 -9 -10 -19 -15 -23 -11 -3 3 -6 -1 -6 -10 0 -10
-4 -17 -9 -17 -5 0 -12 -18 -16 -40 -4 -22 -11 -40 -16 -40 -5 0 -9 -6 -9 -14
0 -8 -7 -21 -15 -30 -17 -17 -10 -46 11 -46 19 0 18 -34 -1 -50 -8 -7 -15 -19
-15 -26 0 -8 -4 -14 -10 -14 -5 0 -10 -9 -10 -19 0 -11 -7 -26 -15 -35 -8 -8
-15 -19 -15 -25 0 -6 -4 -11 -10 -11 -5 0 -10 -7 -10 -15 0 -11 7 -14 24 -9
13 3 27 1 30 -5 4 -6 3 -11 -2 -11 -5 0 -12 -9 -15 -21 -5 -19 -4 -20 12 -5
10 9 20 16 23 16 11 0 1 -49 -13 -67 -11 -14 -8 -14 10 2 21 17 24 18 18 3 -5
-15 -1 -17 24 -14 29 3 29 3 13 -15 -9 -11 -23 -19 -31 -19 -7 0 -13 -7 -13
-15 0 -9 7 -15 16 -13 10 2 19 -3 22 -11 2 -8 0 -11 -6 -8 -5 4 -16 -1 -23
-10 -12 -15 -12 -16 4 -10 14 5 17 2 14 -18 -1 -13 -7 -28 -12 -32 -4 -4 -5
-2 -1 4 4 7 2 13 -3 13 -15 0 -14 -15 3 -29 17 -15 8 -61 -13 -62 -9 -1 -35
-1 -58 -1 -30 1 -43 -3 -43 -12 0 -8 7 -17 16 -20 21 -8 8 -25 -15 -19 -10 3
-22 0 -26 -7 -4 -7 -1 -11 6 -9 23 3 39 -1 39 -9 0 -4 -27 -8 -59 -8 -42 -1
-67 -7 -87 -21 -26 -18 -71 -35 -99 -37 -5 -1 -10 -13 -10 -28 -1 -30 -22 -61
-37 -52 -5 3 -16 0 -24 -7 -8 -6 -17 -9 -21 -6 -3 4 -12 2 -19 -3 -6 -6 -20
-12 -30 -14 -35 -7 -74 -25 -74 -35 0 -5 9 -11 20 -14 11 -3 20 -11 20 -17 0
-7 -6 -10 -14 -7 -8 3 -20 -1 -27 -9 -10 -13 -8 -14 14 -10 37 6 40 -3 9 -30
-21 -18 -23 -23 -10 -24 12 0 15 -6 10 -22 -4 -17 -2 -20 12 -15 13 5 16 3 12
-11 -5 -14 0 -17 24 -16 16 0 36 7 45 14 26 22 16 -5 -13 -33 -24 -23 -31 -25
-67 -17 -22 5 -43 10 -47 10 -13 0 -9 -28 5 -33 6 -2 -7 -4 -31 -3 -49 2 -60
-7 -38 -30 19 -19 20 -25 3 -18 -7 2 -21 -3 -32 -12 -14 -11 -15 -14 -4 -11 9
3 22 1 30 -4 14 -9 9 -16 -26 -34 -6 -3 -5 -7 2 -11 9 -4 10 -11 3 -25 -9 -15
-7 -19 6 -19 13 0 14 -3 4 -14 -9 -12 -8 -15 7 -15 10 1 32 -3 48 -8 29 -9 29
-10 8 -17 -28 -9 -30 -26 -4 -26 10 0 25 -8 32 -17 12 -15 12 -16 -3 -10 -10
3 -18 2 -18 -3 0 -6 4 -10 9 -10 5 0 12 -9 16 -19 3 -11 15 -23 26 -26 10 -4
19 -11 19 -16 0 -6 -9 -8 -19 -4 -42 13 -60 13 -72 -1 -13 -16 -34 -19 -24 -4
8 13 4 13 -39 -5 -29 -12 -36 -13 -36 -2 0 18 -43 15 -48 -4 -2 -8 -6 -21 -9
-29 -3 -8 -7 -22 -7 -30 -1 -10 -9 -14 -23 -12 -24 3 -29 -15 -24 -75 1 -14
-4 -23 -13 -23 -9 0 -13 -10 -12 -30 1 -17 -1 -30 -5 -30 -4 0 -9 -9 -12 -21
-3 -12 -10 -18 -15 -15 -10 6 -35 -48 -26 -56 2 -2 -15 -5 -38 -7 -23 -1 -49
-6 -59 -11 -11 -6 -19 -6 -21 0 -2 5 -9 6 -16 1 -11 -7 -10 -11 3 -25 9 -9 15
-22 13 -28 -3 -7 -13 2 -23 19 -15 26 -22 30 -37 22 -10 -5 -17 -13 -17 -17 4
-23 -3 -41 -17 -46 -13 -5 -15 -2 -11 14 4 14 0 20 -11 20 -11 0 -13 3 -5 11
14 14 5 46 -14 53 -9 4 -17 -1 -20 -14 -3 -11 -9 -20 -14 -20 -5 0 -8 -3 -8
-7 4 -24 -2 -63 -10 -63 -5 0 -12 15 -16 33 -4 17 -9 39 -12 47 -2 8 -5 21 -5
28 -1 7 -8 11 -17 10 -11 -2 -16 -14 -16 -37 0 -31 -21 -58 -22 -29 -1 42 -20
62 -65 70 -21 4 -29 1 -33 -13 -7 -22 -21 -25 -28 -6 -3 9 -12 7 -36 -6 -23
-13 -31 -15 -31 -5 0 7 -11 14 -24 14 -22 2 -25 -3 -31 -48 -6 -42 -10 -49
-26 -45 -17 5 -24 -4 -20 -27 1 -4 -3 -14 -9 -21 -8 -9 -8 -15 0 -20 5 -3 10
-19 10 -35 0 -15 6 -30 13 -33 10 -4 10 -7 0 -18 -11 -11 -13 -10 -13 4 0 9
-7 17 -15 17 -8 0 -12 -6 -10 -13 3 -6 9 -33 13 -58 8 -42 7 -46 -9 -42 -11 3
-16 9 -13 14 3 5 1 9 -5 9 -5 0 -16 3 -25 6 -10 4 -21 -8 -36 -41 -17 -38 -24
-44 -35 -35 -12 10 -17 7 -24 -13 -6 -14 -19 -31 -30 -36 -16 -9 -20 -8 -23
10 -3 22 -32 48 -42 38 -3 -3 -5 -18 -5 -35 -1 -87 22 -148 51 -141 10 3 18 4
18 3 0 -1 -24 -20 -54 -42 -48 -34 -67 -61 -70 -99 -1 -5 -71 -52 -156 -105
-94 -57 -148 -96 -138 -98 12 -2 17 -12 16 -28 -3 -28 -109 -109 -254 -194
-42 -25 -93 -59 -113 -76 -20 -17 -44 -34 -53 -37 -10 -4 -18 -11 -18 -17 0
-6 5 -8 13 -3 23 14 37 11 37 -8 0 -23 -2 -23 55 1 26 11 57 17 69 14 17 -4
42 9 102 56 257 197 586 415 611 405 8 -2 11 -1 8 4 -3 5 0 13 6 17 6 3 15 1
19 -5 7 -13 210 131 361 256 112 92 205 127 152 56 l-28 -38 45 34 c49 37
-199 -213 -265 -267 -23 -19 -31 -30 -20 -27 24 8 -19 -32 -78 -72 -60 -41
-36 -37 43 7 39 23 74 39 76 37 4 -4 -42 -48 -97 -92 -27 -22 -27 -21 44 19
26 15 47 25 47 23 0 -6 -290 -201 -415 -280 -93 -59 -163 -114 -132 -103 9 3
158 100 331 216 173 115 319 210 325 210 6 0 11 5 11 11 0 5 4 8 10 4 5 -3 25
1 45 9 47 20 44 5 -7 -35 -65 -49 -67 -53 -18 -29 73 36 28 1 -175 -136 -213
-143 -316 -219 -328 -240 -5 -8 -13 -11 -19 -8 -7 4 -8 2 -4 -5 4 -6 12 -9 17
-6 5 4 9 2 9 -4 0 -6 -13 -17 -30 -26 -39 -20 -38 -28 3 -20 51 11 28 -1 -72
-40 -52 -19 -130 -54 -174 -77 -69 -36 -77 -43 -63 -54 15 -10 15 -13 3 -21
-8 -4 -27 -23 -42 -41 -33 -39 -44 -43 165 52 144 65 195 81 171 52 -6 -7 -50
-31 -96 -51 -47 -21 -84 -40 -82 -42 9 -9 196 83 264 130 243 166 505 314 462
261 -8 -10 -9 -15 -2 -11 6 4 14 3 18 -2 3 -6 -20 -29 -52 -52 -84 -61 -85
-63 -10 -30 37 17 67 28 67 26 0 -2 -17 -14 -37 -26 -58 -35 -147 -105 -201
-157 -63 -61 -169 -147 -257 -208 -121 -83 -321 -236 -285 -218 11 6 11 2 -2
-12 -12 -14 -14 -24 -7 -31 12 -12 16 -10 -151 -115 -303 -190 -498 -303 -830
-481 -262 -139 -305 -167 -282 -181 15 -9 124 26 212 70 47 23 207 108 355
189 149 82 278 148 288 147 10 0 15 4 11 10 -4 7 -2 8 4 4 6 -4 37 8 68 26 45
25 56 28 51 14 -6 -15 -3 -15 22 3 16 12 33 21 37 21 4 0 17 8 28 19 58 51
311 189 324 176 3 -3 12 1 20 8 10 7 13 8 9 1 -18 -31 -539 -349 -782 -479
-96 -51 -182 -105 -228 -142 -36 -29 -31 -29 39 2 64 28 64 28 64 16 0 -5 -9
-13 -20 -16 -11 -4 -18 -10 -15 -15 3 -5 15 -6 28 -1 13 5 34 7 48 4 15 -3 54
9 103 31 44 20 81 35 83 33 1 -2 -37 -23 -87 -46 -49 -24 -90 -45 -90 -47 0
-2 19 3 41 11 58 21 61 18 9 -10 -52 -28 -49 -31 10 -10 50 18 65 14 20 -5
-16 -7 -30 -18 -30 -26 0 -7 -27 -25 -60 -40 -60 -27 -78 -44 -24 -23 16 6 49
13 74 15 l45 4 -30 -17 c-27 -15 -28 -17 -10 -24 11 -4 16 -8 10 -8 -5 -1 -3
-6 5 -11 13 -8 12 -10 -2 -10 -10 0 -17 -5 -15 -11 1 -6 -33 -24 -76 -41 -43
-17 -77 -32 -75 -33 2 -2 23 1 48 5 48 10 111 12 76 3 -10 -3 -33 -14 -50 -25
-17 -11 -24 -18 -15 -15 8 3 47 8 85 11 63 5 65 4 29 -6 -22 -6 -43 -15 -46
-21 -4 -5 -14 -7 -23 -4 -9 4 -16 2 -16 -2 0 -5 -79 -24 -175 -42 -96 -18
-173 -34 -171 -36 2 -2 32 -4 67 -5 55 0 61 -2 39 -11 -24 -11 -24 -11 14 -15
39 -3 212 25 348 57 77 18 98 15 98 -16 0 -7 9 -13 21 -13 14 0 19 -5 16 -14
-4 -10 2 -17 16 -22 31 -9 50 -26 38 -33 -5 -4 -4 -14 5 -25 10 -14 17 -16 26
-9 7 6 28 14 46 18 24 5 32 3 32 -8 0 -11 6 -12 35 -3 19 6 35 17 35 25 0 8 7
11 19 8 15 -3 18 -1 14 11 -5 12 -1 14 15 10 13 -4 27 1 38 13 9 10 25 21 35
24 11 4 19 13 19 21 0 9 7 14 16 12 8 -2 15 -7 15 -13 0 -5 12 -23 28 -40 15
-16 35 -47 45 -68 14 -31 21 -36 42 -33 22 4 24 3 13 -10 -6 -8 -9 -17 -5 -21
3 -3 6 -1 6 5 0 7 11 5 30 -4 17 -9 30 -21 30 -28 0 -7 9 -21 20 -31 11 -10
18 -20 16 -24 -2 -3 6 -19 19 -36 l24 -29 12 29 c11 29 11 29 19 9 15 -38 30
-39 23 -2 l-6 33 21 -19 c12 -11 22 -25 22 -31 0 -7 7 -15 15 -19 15 -6 20 5
8 18 -17 17 -10 36 14 36 22 0 24 2 12 16 -12 15 -11 16 11 9 20 -6 23 -5 14
6 -6 8 -10 22 -9 31 2 9 -3 22 -11 29 -8 6 -14 16 -14 22 0 6 11 0 25 -13 31
-29 38 -24 20 15 -15 31 -38 86 -39 95 -1 3 -5 11 -9 17 -5 8 -3 13 3 13 7 0
14 -9 17 -21 4 -13 11 -18 21 -14 8 3 23 -2 33 -11 10 -9 42 -19 71 -23 50 -6
54 -8 64 -41 12 -35 33 -52 36 -28 0 7 2 18 3 23 2 6 3 15 4 20 1 6 9 0 19
-13 23 -29 80 -38 99 -14 10 13 14 14 21 4 7 -10 14 -8 32 8 24 21 40 26 40
12 0 -15 45 -6 46 9 1 8 2 20 3 27 0 6 9 12 19 12 16 1 16 1 -1 11 -26 15 -12
27 28 22 20 -2 35 1 35 7 0 5 -7 10 -15 10 -9 0 -15 9 -15 22 0 20 1 20 19 4
12 -11 27 -15 39 -11 11 3 23 1 27 -5 11 -18 27 -11 20 10 -4 11 -2 20 4 20 6
0 20 10 32 23 12 12 19 16 15 10 -4 -7 -2 -13 3 -13 6 0 29 -18 52 -40 39 -38
67 -45 55 -14 -6 17 -1 17 25 4 13 -7 19 -7 19 0 0 5 -5 10 -11 10 -8 0 -8 4
1 14 6 8 19 12 28 9 15 -5 14 -3 -2 15 -11 12 -14 22 -8 22 7 0 12 -4 12 -10
0 -17 28 -11 49 11 17 19 18 23 5 36 -8 8 -14 16 -14 18 0 1 37 1 83 -1 105
-6 96 -6 140 1 24 4 37 3 37 -4 0 -6 6 -11 14 -11 7 0 19 -7 26 -15 10 -13 15
-13 21 -3 4 7 4 15 -1 18 -5 3 -5 12 1 20 8 11 12 12 16 3 2 -7 11 -13 20 -13
12 0 12 2 -1 16 -9 8 -16 17 -16 20 0 7 54 -8 64 -17 15 -13 26 -11 26 6 0 8
-4 15 -10 15 -5 0 -10 7 -10 15 0 10 10 15 28 16 l27 0 -25 11 -25 10 28 10
c22 8 26 13 16 24 -9 11 -8 14 5 14 9 0 16 7 16 15 0 9 7 18 15 21 14 6 13 8
-2 20 -17 12 -17 13 5 14 12 0 22 5 22 10 0 6 11 10 24 10 14 0 28 -4 31 -10
3 -5 17 -10 30 -10 13 0 40 -8 60 -17 38 -18 55 -12 35 12 -10 12 -10 19 -2
27 9 9 12 9 12 0 0 -7 10 -12 22 -12 l22 0 -22 16 c-31 22 -27 34 11 34 21 0
28 3 18 9 -10 7 -8 12 10 25 19 13 20 16 6 16 -22 0 -22 17 1 23 15 4 15 5 0
6 -9 0 -19 10 -23 20 -3 11 -16 22 -28 24 -18 3 -17 5 6 6 24 1 27 4 22 21 -3
11 -5 20 -3 21 86 13 101 7 133 -53 11 -21 22 -33 26 -27 4 8 8 7 11 -2 7 -20
68 11 69 36 2 34 -3 59 -13 73 -8 9 -6 12 5 12 9 0 23 7 31 16 9 8 20 13 25
10 13 -8 21 18 10 35 -15 23 -10 39 12 39 11 0 27 6 35 14 12 12 12 18 -1 43
-14 27 -14 29 23 60 28 25 34 35 23 41 -14 10 -1 23 199 207 126 116 139 131
133 154 -4 15 7 38 36 76 22 30 41 57 41 60 0 4 -55 -45 -122 -107 -160 -148
-234 -206 -398 -315 -178 -118 -199 -127 -116 -48 37 36 65 65 60 65 -22 0 94
100 191 165 61 40 119 83 130 95 l20 23 -35 -18 -35 -17 35 32 35 31 -29 -6
-30 -6 40 43 c21 24 62 72 89 107 28 34 56 69 63 77 7 8 10 14 6 14 -4 0 1 9
11 20 10 11 14 20 10 20 -4 0 0 9 10 20 10 11 14 20 10 20 -4 0 0 9 10 20 10
11 16 23 12 26 -4 5 187 242 226 279 16 16 -1 -11 -81 -130 -79 -115 -131
-186 -145 -196 -5 -3 -8 -10 -7 -14 1 -4 -7 -18 -19 -31 -12 -13 -21 -27 -21
-29 0 -3 -16 -29 -35 -58 -19 -29 -31 -53 -25 -55 6 -2 7 -9 3 -15 -3 -7 4 -3
17 8 14 12 20 14 15 5 -11 -20 0 -10 70 70 133 151 341 446 452 640 33 58 123
213 200 346 181 309 310 558 367 707 47 119 83 244 74 253 -11 10 -39 -10 -44
-32 -3 -13 -10 -24 -14 -24 -4 0 -24 -48 -45 -106 -77 -216 -408 -810 -495
-889 -20 -18 107 240 205 415 95 170 250 496 298 625 60 163 109 339 112 405
2 30 1 49 -2 42 -3 -6 -8 -10 -13 -7 -4 3 -6 -5 -2 -17 3 -14 1 -19 -6 -14 -7
4 -17 -15 -28 -54 -9 -33 -20 -57 -24 -55 -5 3 -6 -5 -2 -17 4 -16 2 -19 -8
-13 -10 6 -12 3 -8 -13 4 -12 3 -20 -1 -18 -4 3 -16 -18 -26 -47 -117 -338
-371 -837 -675 -1327 -179 -288 -246 -376 -434 -568 -308 -314 -621 -565 -841
-675 -49 -24 -100 -47 -112 -51 -59 -16 -64 -14 -18 9 42 21 35 25 -12 8 -7
-3 -13 -1 -12 3 0 5 32 25 72 44 154 76 371 228 576 404 107 92 401 380 482
471 200 227 239 275 268 336 11 22 18 39 16 39 -2 0 -33 -40 -69 -89 -127
-171 -209 -216 -148 -81 14 30 40 78 57 105 40 64 72 131 134 280 48 116 56
157 22 105 -26 -39 -216 -282 -243 -311 -14 -15 -28 -34 -31 -43 -4 -9 -11
-16 -17 -16 -5 0 -10 -5 -10 -12 0 -7 -12 -23 -27 -36 -16 -13 -21 -20 -13
-17 8 4 2 -5 -15 -20 -16 -14 -24 -23 -16 -19 10 5 12 3 7 -5 -5 -7 -15 -10
-23 -7 -11 5 -14 1 -10 -13 3 -14 1 -18 -10 -14 -9 4 -16 -2 -20 -16 -4 -17
-8 -19 -19 -10 -11 9 -13 9 -10 -2 3 -8 -5 -26 -17 -41 -20 -24 -23 -25 -23
-9 0 11 4 17 8 15 7 -5 25 22 27 41 3 20 46 73 55 68 5 -3 6 -1 3 4 -4 6 16
41 44 77 66 88 329 486 329 499 0 6 6 18 14 26 16 18 53 102 38 86 -5 -5 -51
-75 -103 -155 -209 -327 -494 -710 -649 -874 -73 -77 -180 -161 -180 -141 0 8
-5 15 -11 15 -7 0 -4 11 6 28 l18 27 -21 -19 c-49 -43 -16 9 79 126 179 219
204 251 311 393 118 157 260 362 307 445 l32 55 -33 -36 c-18 -20 -73 -83
-122 -140 -377 -440 -1205 -1259 -1247 -1233 -7 4 -9 3 -6 -3 4 -6 -1 -17 -11
-24 -15 -13 -16 -12 -4 3 10 13 10 17 0 21 -8 3 33 49 102 117 89 88 98 99 40
49 -81 -69 -128 -106 -100 -78 68 70 332 311 336 307 2 -3 -25 -33 -61 -67
-36 -33 -62 -61 -58 -61 13 0 603 581 603 593 0 7 -75 -65 -168 -158 -179
-183 -317 -316 -311 -300 3 6 123 127 269 270 146 143 251 245 235 227 -17
-18 -23 -30 -15 -26 29 13 191 195 184 206 -4 6 -3 8 4 5 9 -6 105 93 97 101
-2 2 -20 -14 -40 -35 -21 -21 -11 -6 21 34 33 39 63 72 68 72 6 1 -3 -13 -19
-29 -16 -17 -24 -30 -19 -30 12 0 90 102 86 113 -2 7 79 119 98 137 3 3 16 20
29 38 12 18 27 30 32 27 5 -4 6 1 3 9 -4 11 0 16 12 16 9 0 15 3 11 6 -3 4 4
15 16 26 12 11 16 16 8 12 -9 -5 -12 -3 -7 4 4 7 14 12 23 12 9 0 13 6 9 15
-3 8 0 14 7 12 7 -1 11 6 11 15 -1 10 2 16 6 13 5 -3 30 26 56 65 51 76 63 88
39 38 -15 -33 -15 -33 2 -8 10 13 37 45 61 69 23 25 42 49 42 55 0 6 4 6 8 -1
12 -18 83 114 122 223 17 49 44 121 60 159 16 39 50 120 75 180 25 61 50 119
55 130 57 122 124 406 180 765 57 361 73 461 87 530 17 87 21 103 23 110 1 3
2 8 1 13 0 4 4 7 9 7 6 0 10 7 10 15 0 18 16 20 18 3 5 -44 16 -78 23 -78 5 0
9 -7 9 -15 0 -8 6 -16 13 -16 6 -1 22 -3 35 -4 13 -1 26 4 29 11 3 8 9 11 14
8 5 -3 9 7 9 21 0 22 3 26 18 20 9 -4 24 -8 32 -9 10 -2 17 -21 23 -62 4 -32
10 -79 14 -104 l6 -45 13 45 c6 25 12 37 13 28 2 -39 21 -15 21 26 0 48 12 60
45 43 13 -7 20 -7 23 1 2 6 9 9 17 6 7 -3 32 11 54 31 53 48 71 37 71 -44 0
-102 11 -163 31 -168 10 -3 20 -12 23 -20 9 -22 -48 -405 -89 -601 -25 -121
-33 -176 -26 -193 7 -20 11 -11 27 60 12 56 25 91 39 102 11 10 30 27 43 37
25 22 52 104 100 307 43 180 56 250 90 464 10 60 30 71 73 41 43 -31 108 -41
133 -21 7 6 20 3 36 -9 13 -10 29 -16 35 -14 6 3 21 -6 34 -20 23 -24 23 -24
43 -4 11 11 17 26 14 33 -3 8 9 20 30 30 30 14 36 14 49 2 8 -8 25 -12 39 -10
16 3 26 1 26 -6 0 -7 5 -9 10 -6 6 3 14 -5 19 -18 10 -27 46 -41 70 -27 10 5
24 4 34 -1 23 -13 54 -3 68 23 8 15 8 18 0 14 -7 -5 -9 -1 -5 8 8 22 23 20 42
-4 11 -14 31 -22 56 -23 35 -3 41 -7 52 -37 7 -19 13 -29 13 -21 1 8 8 11 20
8 25 -6 36 2 48 38 7 21 16 29 29 27 10 -1 29 -4 41 -6 12 -2 34 -11 48 -20
18 -12 24 -13 23 -4 -5 25 61 12 83 -16 26 -33 65 -31 91 5 25 33 57 31 78 -7
9 -16 22 -30 29 -32 7 -1 9 2 5 9 -4 8 0 9 15 4 17 -5 21 -2 21 15 0 26 22 35
50 20 18 -10 24 -9 31 1 5 8 14 14 21 14 7 1 12 6 11 13 -3 12 21 16 67 12 61
-7 126 0 150 15 16 10 23 -24 9 -42 -12 -14 -12 -16 1 -8 8 4 23 15 32 22 15
13 18 12 30 -6 7 -12 18 -21 24 -21 7 0 21 -14 32 -31 11 -18 22 -27 26 -21 4
6 13 9 21 5 8 -3 15 -1 16 3 1 20 10 58 13 61 2 2 20 -5 40 -16 20 -12 36 -16
36 -10 0 5 5 7 10 4 6 -3 10 -1 10 6 0 7 3 9 7 6 11 -11 32 13 26 30 -6 14 18
15 218 11 135 -3 234 -1 250 5 14 6 32 8 40 5 8 -3 18 -6 23 -6 5 0 13 -6 17
-14 6 -8 9 -9 9 -1 0 6 9 9 20 6 11 -3 20 0 20 6 0 8 76 11 262 11 258 0 262
0 286 -22 23 -23 24 -23 38 -4 8 11 14 16 14 11 0 -5 5 -4 12 3 9 9 71 12 215
12 177 0 207 -2 230 -17 24 -16 55 -18 258 -18 126 -1 327 -4 445 -7 163 -5
185 -5 90 2 -215 15 -219 16 -53 18 119 2 162 5 166 15 3 9 139 12 638 11 349
-1 618 2 599 6 -19 4 264 8 630 8 501 1 712 5 855 17 105 8 198 15 208 15 9 0
17 6 17 14 0 10 -45 16 -202 26 -112 7 -207 16 -213 20 -5 4 -64 10 -130 14
-102 5 -212 22 -165 25 13 1 13 2 0 12 -11 7 92 8 350 2 494 -11 541 -10 723
6 96 9 161 11 165 5 12 -16 69 -44 94 -45 22 -1 22 -2 -4 -12 -37 -15 -35 -27
5 -28 30 -2 30 -2 5 -6 -16 -2 -28 -8 -28 -13 0 -17 97 -23 280 -16 102 3 314
9 471 13 309 7 288 9 344 -45 9 -8 16 -9 20 -2 3 5 15 10 26 10 11 0 22 7 25
15 4 8 10 12 15 9 5 -3 9 -1 9 4 0 16 40 21 54 7 7 -8 16 -11 20 -8 3 4 6 -3
6 -15 0 -19 9 -25 36 -21 4 0 10 -4 13 -10 10 -15 59 8 66 31 12 35 37 29 87
-22 27 -28 53 -48 58 -45 5 3 19 1 30 -5 11 -6 20 -7 20 -2 0 6 9 12 20 15 16
4 20 12 17 31 -1 14 -6 28 -10 32 -23 24 -3 31 88 33 52 0 95 -3 95 -7 0 -13
52 -36 74 -33 11 2 27 13 37 24 10 12 18 18 19 13 0 -6 6 -2 13 9 13 16 17 17
45 4 18 -8 32 -21 32 -29 1 -23 22 -45 48 -47 16 -2 25 4 32 23 6 15 9 33 8
42 -2 8 3 17 10 19 6 3 12 0 12 -7 0 -6 5 -8 11 -5 6 4 16 0 22 -10 10 -13 18
-14 39 -6 14 5 29 7 32 4 3 -4 6 -1 6 5 0 17 46 15 64 -4 15 -14 16 -14 16 3
1 16 2 16 13 3 13 -17 75 -19 85 -3 4 6 43 11 87 12 75 1 150 10 290 31 33 6
96 8 140 6 52 -2 82 0 87 8 5 8 16 6 37 -7 28 -16 33 -17 60 -2 36 18 55 19
81 3 15 -10 32 -10 76 0 33 6 62 8 68 3 6 -5 54 -11 106 -15 75 -5 104 -3 133
9 46 19 53 19 37 0 -10 -13 -9 -15 9 -15 25 0 25 0 7 -36 -8 -15 -13 -32 -10
-36 7 -11 -24 -48 -39 -48 -18 0 -94 -68 -94 -84 0 -12 4 -13 13 -5 8 6 12 16
11 21 -1 6 4 13 12 16 9 3 11 0 6 -9 -5 -7 17 8 49 34 32 26 63 47 69 47 21
-1 -93 -99 -253 -218 -85 -64 -177 -137 -205 -162 -27 -26 -91 -76 -141 -112
-110 -79 -265 -202 -348 -276 -33 -30 -115 -95 -181 -145 -66 -50 -178 -136
-250 -192 -132 -104 -280 -211 -505 -364 -241 -164 -312 -222 -290 -236 7 -4
17 -2 23 4 15 15 50 14 45 -1 -2 -6 -93 -75 -201 -153 -169 -121 -434 -324
-471 -360 -6 -6 -69 -52 -141 -102 -144 -101 -169 -123 -171 -158 l-1 -23 36
22 c20 13 85 55 146 94 88 57 111 68 118 56 6 -11 13 -12 28 -4 51 28 7 -7
-103 -81 -215 -145 -330 -229 -311 -229 8 0 39 15 150 76 41 22 60 29 57 19
-11 -28 14 -15 153 77 76 51 147 93 159 94 11 0 55 22 98 49 42 27 83 50 92
51 8 1 58 29 112 62 133 81 143 86 136 67 -8 -19 1 -19 31 1 14 9 32 14 40 10
11 -4 -9 -29 -72 -90 -48 -47 -84 -89 -80 -92 4 -4 2 -13 -4 -20 -6 -7 -6 -15
-1 -18 5 -3 59 30 119 73 152 108 237 157 203 116 -27 -33 21 -14 97 38 74 50
400 228 443 242 11 4 20 2 20 -4 0 -23 45 -9 119 35 42 26 80 47 86 48 5 1 39
18 75 37 36 18 85 37 110 40 25 3 70 16 100 28 68 28 61 21 -69 -65 -57 -37
-99 -70 -92 -72 6 -2 8 -8 5 -14 -7 -11 47 15 86 42 47 31 100 62 100 57 0 -3
-42 -32 -94 -65 -100 -65 -135 -97 -66 -62 87 44 44 11 -111 -84 -87 -55 -159
-105 -159 -112 0 -7 -20 -33 -45 -57 -38 -38 -41 -45 -22 -43 27 3 61 21 180
93 51 30 95 57 100 60 4 2 7 2 7 0 0 -5 -291 -197 -372 -246 -53 -32 -47 -34
15 -6 28 13 72 27 97 30 l45 7 -25 -22 c-21 -18 -21 -20 -4 -11 12 6 24 8 27
5 7 -7 389 238 631 404 93 64 175 117 182 118 6 1 26 12 43 25 18 13 46 23 69
23 22 1 46 8 56 19 10 9 22 17 28 17 6 0 0 -9 -13 -20 -40 -33 4 -25 82 15 38
19 79 35 92 35 13 0 34 10 46 22 20 18 27 19 44 9 17 -11 19 -11 14 3 -4 10
-1 19 8 22 8 4 15 12 15 20 0 15 83 104 98 104 5 0 12 -6 15 -14 5 -14 -48
-65 -111 -107 -15 -11 -20 -19 -13 -24 6 -3 8 -11 4 -18 -3 -6 10 2 30 17 20
16 35 32 32 36 -3 4 3 14 13 21 15 13 16 12 3 -4 -12 -15 -11 -17 2 -17 8 0
17 -4 19 -9 2 -6 32 14 68 44 63 52 116 81 89 49 -23 -28 1 -13 50 31 28 24
77 63 108 86 32 24 81 60 110 82 29 21 58 37 64 35 7 -2 -20 -28 -60 -57 -39
-30 -69 -56 -67 -59 7 -7 -14 -32 -26 -32 -6 0 -4 8 3 18 11 14 10 14 -8 -2
-13 -10 -20 -23 -17 -28 3 -5 -2 -8 -12 -6 -10 2 -19 -1 -19 -7 0 -5 -4 -17
-10 -25 -7 -12 -6 -13 6 -4 8 6 50 37 94 69 87 63 117 89 70 61 -28 -17 -29
-17 -13 -1 9 10 27 18 40 19 13 1 22 7 20 15 -1 7 2 10 9 5 9 -5 3 -15 -17
-33 -25 -23 -44 -71 -28 -71 3 0 31 24 62 54 85 79 263 226 276 226 6 0 25 13
41 29 17 15 41 33 53 40 12 7 20 16 17 21 -3 5 0 12 6 16 8 5 9 3 4 -6 -5 -8
-3 -11 6 -8 8 3 13 10 12 15 -1 5 7 9 18 9 10 0 19 -1 19 -2 0 -1 -31 -28 -70
-60 -38 -32 -66 -62 -61 -67 9 -9 202 124 195 134 -2 4 4 6 14 5 9 0 16 4 15
10 -1 7 5 11 15 10 9 0 16 4 15 10 -1 7 5 11 15 10 9 0 16 4 15 11 -2 7 3 10
11 7 8 -3 17 0 22 7 5 8 3 10 -6 4 -8 -5 -11 -4 -7 2 4 6 22 9 42 7 20 -1 35
2 35 9 0 10 64 74 77 77 3 1 10 -4 14 -12 7 -10 9 -9 9 4 0 22 39 35 52 17 8
-11 9 -10 4 4 -3 10 0 17 8 17 9 0 12 7 9 18 -8 32 36 99 107 162 49 43 67 65
63 79 -3 12 8 29 37 54 23 19 42 42 44 50 2 15 177 159 184 152 2 -2 42 28 89
66 47 38 92 69 99 69 17 0 18 -32 2 -49 -7 -7 3 -4 22 8 43 26 52 26 48 4 -2
-12 3 -17 15 -15 10 2 17 -3 17 -13 0 -8 5 -15 10 -15 6 0 10 4 10 9 0 5 11
11 25 13 22 5 23 3 13 -16 -10 -19 -9 -19 5 -8 13 11 16 10 19 -10 2 -13 5
-21 8 -18 3 3 16 -5 29 -17 18 -16 28 -20 41 -13 10 5 20 7 23 3 4 -3 9 1 13
10 11 28 51 48 77 38 16 -6 28 -6 35 1 16 16 36 0 21 -18 -6 -8 -7 -14 -2 -14
14 0 38 30 52 65 8 22 19 31 37 33 14 1 23 -2 19 -8 -4 -6 13 -10 44 -10 30 0
51 5 54 13 2 6 13 13 25 13 12 1 31 2 42 3 11 0 19 4 18 9 -1 4 2 18 6 31 9
25 -9 45 -29 33 -5 -3 -4 2 4 11 7 9 22 17 32 17 11 0 19 6 19 13 0 8 17 19
38 25 33 10 37 15 37 44 0 23 -5 34 -18 36 -9 2 -15 8 -11 13 3 6 -6 8 -23 4
l-28 -5 25 12 c34 17 34 58 0 75 -22 11 -23 13 -5 13 19 1 19 1 2 15 -18 13
-18 14 4 17 14 2 23 11 26 27 2 14 8 30 13 37 7 8 6 13 -5 18 -8 3 -15 12 -15
21 0 8 -6 15 -14 15 -7 0 -19 6 -26 14 -6 8 -21 16 -33 18 -12 2 -22 10 -22
18 0 8 -4 18 -10 22 -6 5 -4 8 6 8 8 0 20 -5 27 -12 16 -16 17 5 2 33 -8 14
-7 19 1 19 6 0 8 7 5 16 -4 12 -2 15 9 10 51 -21 51 -21 37 -4 -11 14 -10 16
7 11 15 -4 24 2 33 23 7 16 17 32 22 35 5 4 5 13 0 20 -5 8 -9 20 -11 28 -1 8
-9 18 -17 23 -19 11 -21 49 -4 66 8 8 8 12 1 12 -6 0 -18 12 -28 26 -17 27
-17 27 9 22 44 -9 29 12 -29 38 -30 14 -55 28 -55 31 0 4 7 15 17 25 18 20 20
97 2 108 -10 7 -17 28 -18 60 -1 9 -14 21 -30 27 -25 9 -32 8 -45 -6 -9 -10
-16 -25 -16 -35 0 -24 -26 1 -27 27 -2 21 -35 57 -53 57 -9 0 -12 8 -9 26 0 4
-5 10 -11 14 -12 8 -5 50 8 49 27 -4 31 2 20 26 -11 24 -38 35 -38 15 0 -5 -7
-10 -15 -10 -8 0 -17 14 -21 35 -3 19 -10 32 -15 30 -8 -5 -27 22 -27 38 0 5
-9 20 -21 33 -12 13 -21 31 -21 39 0 8 -6 15 -14 15 -8 0 -23 11 -34 25 -11
14 -22 21 -24 16 -6 -17 -48 9 -59 36 -7 17 -13 23 -16 15 -6 -16 -33 3 -33
24 0 10 -7 9 -31 -4 -24 -13 -33 -14 -36 -5 -3 8 -14 11 -28 7 -12 -3 -26 -1
-29 5 -4 6 -16 11 -26 11 -10 0 -32 12 -49 26 -17 14 -31 21 -31 15 0 -6 -6
-10 -12 -8 -13 2 -163 100 -271 176 -31 23 -60 41 -64 41 -3 0 -12 8 -20 17
-8 10 -12 13 -9 7 2 -5 -73 41 -167 104 -178 118 -290 182 -342 193 -29 7 -29
6 14 -32 24 -22 42 -41 39 -44 -2 -2 -67 34 -143 82 -77 47 -273 167 -435 266
-162 99 -342 211 -398 249 -67 45 -112 68 -125 66 -20 -4 -18 -8 21 -46 23
-23 77 -65 120 -94 112 -75 312 -228 312 -238 0 -5 -8 -6 -17 -3 -17 7 -17 6
-1 -17 44 -62 43 -73 -5 -49 -12 6 2 -12 32 -40 52 -49 56 -68 8 -36 -13 8
-48 23 -78 34 -98 34 -635 353 -624 370 11 18 -51 74 -209 188 -214 156 -357
266 -381 295 -11 13 -65 60 -120 105 -55 44 -109 91 -120 103 l-20 23 25 -13
c27 -14 160 -110 279 -201 48 -37 80 -55 92 -52 10 3 16 9 13 14 -10 17 9 9
98 -42 49 -28 92 -49 94 -46 20 20 -230 216 -584 456 -51 35 -97 72 -103 83
-5 10 -14 16 -20 13 -5 -4 -9 -1 -9 5 0 6 -37 29 -82 51 -97 46 -118 60 -118
83 0 9 -5 16 -11 16 -5 0 -7 -5 -4 -10 3 -5 1 -10 -4 -10 -6 0 -11 4 -11 10 0
5 -6 7 -14 4 -21 -8 -66 24 -59 43 5 12 1 14 -18 8 -21 -7 -22 -6 -11 8 15 17
8 57 -9 57 -15 0 -39 26 -39 43 0 17 -85 16 -103 -2 -21 -21 -49 -11 -196 66
-276 145 -310 159 -318 137 -2 -5 14 -20 36 -32 54 -31 94 -79 79 -96 -6 -6
-25 -10 -42 -8 -24 3 -28 1 -16 -7 25 -18 3 -12 -44 11 -32 15 -45 27 -43 40
1 15 -21 33 -91 73 -87 50 -128 61 -116 30 4 -9 -5 -12 -30 -12 -30 1 -57 18
-164 105 -141 115 -229 182 -236 182 -3 0 -62 34 -133 75 -70 41 -134 73 -141
70 -8 -3 -10 0 -6 7 5 7 2 9 -8 5 -9 -3 -49 13 -94 39 -42 24 -79 43 -80 41
-2 -2 37 -29 86 -61 50 -32 90 -60 90 -62 0 -5 -101 50 -165 91 -129 82 -169
107 -235 145 -42 23 -70 34 -67 26 3 -8 1 -16 -5 -18 -6 -2 23 -25 65 -52 42
-26 80 -52 83 -58 5 -7 2 -8 -7 -4 -35 19 41 -37 89 -65 28 -17 52 -32 52 -33
0 -10 -51 5 -85 24 l-40 23 40 -38 c22 -21 51 -45 65 -54 14 -8 54 -36 90 -62
36 -25 110 -70 165 -99 120 -64 135 -73 135 -82 0 -4 -32 4 -72 18 -48 17 -73
22 -78 14 -12 -19 -367 156 -562 277 -139 86 -220 126 -245 121 -11 -2 32 -36
117 -92 147 -97 352 -248 345 -255 -3 -2 -48 22 -100 53 -109 65 -251 121
-220 86 10 -11 27 -22 39 -26 46 -15 316 -252 316 -278 0 -17 -44 5 -85 43
-37 34 -51 41 -73 37 -21 -4 -40 3 -82 34 -190 137 -445 290 -497 296 -11 1
-32 5 -45 9 -20 6 -19 3 7 -14 17 -12 49 -36 71 -53 23 -18 108 -85 190 -149
82 -64 164 -130 183 -148 18 -17 35 -31 38 -31 3 0 29 -21 59 -47 35 -29 51
-50 45 -56 -6 -6 -48 21 -118 75 -114 90 -283 206 -248 171 24 -24 134 -121
179 -158 27 -22 67 -57 90 -77 23 -20 129 -90 236 -154 200 -120 360 -223 360
-231 0 -3 -20 7 -44 21 -54 32 -69 34 -30 4 41 -31 53 -44 24 -26 -206 125
-344 200 -353 192 -2 -3 -25 6 -50 20 -25 13 -44 26 -41 29 3 2 -7 7 -21 9
-47 10 -25 -13 88 -85 151 -98 253 -156 368 -212 53 -25 105 -55 115 -67 19
-21 19 -21 -1 -14 -20 7 -20 7 1 -11 11 -10 27 -22 36 -28 132 -85 298 -200
298 -206 0 -5 7 -9 16 -9 9 0 12 -5 8 -12 -4 -7 -4 -10 1 -6 11 10 47 -11 40
-22 -3 -6 0 -7 8 -4 9 3 22 -4 31 -18 9 -12 16 -18 16 -13 0 5 16 -8 35 -29
22 -24 39 -35 47 -30 7 4 10 3 5 -1 -4 -5 5 -17 20 -27 26 -17 27 -18 6 -18
-12 0 -25 5 -28 10 -4 6 -11 8 -16 4 -5 -3 -6 -10 -3 -16 4 -7 2 -8 -5 -4 -9
6 -9 11 1 23 10 13 8 14 -17 12 -19 -3 -29 1 -28 8 2 6 -7 15 -20 19 -12 3
-29 12 -37 19 -8 6 -24 15 -34 19 -16 5 -17 4 -6 -9 7 -8 16 -12 21 -9 5 3 9
1 9 -5 0 -6 42 -42 93 -80 91 -69 125 -86 71 -36 l-29 26 33 -22 c17 -13 32
-30 32 -38 0 -14 1 -14 10 -1 9 14 14 7 11 -13 -1 -5 3 -6 9 -2 6 4 43 -17 83
-45 39 -29 84 -58 99 -65 16 -6 26 -14 22 -17 -3 -4 4 -9 16 -13 11 -4 57 -31
100 -62 44 -30 117 -75 163 -100 88 -48 109 -67 100 -89 -3 -8 0 -14 7 -14 7
0 10 -6 7 -13 -3 -8 -2 -18 1 -24 11 -17 162 -113 234 -149 37 -18 70 -40 75
-48 4 -8 28 -26 52 -40 25 -13 46 -32 47 -41 1 -9 6 -24 10 -33 4 -9 6 -25 5
-36 -2 -10 3 -22 10 -27 10 -6 8 -20 -8 -63 -16 -44 -18 -56 -7 -56 8 0 11 -7
8 -17 -5 -15 -4 -16 5 -3 10 13 12 13 21 -1 12 -21 60 -13 61 10 0 12 2 11 9
-4 6 -14 9 -15 10 -5 1 24 36 64 44 51 4 -6 1 -11 -6 -11 -8 0 -6 -5 5 -11 9
-5 17 -21 17 -35 0 -14 3 -23 8 -20 11 7 45 -21 38 -33 -4 -5 -2 -12 4 -16 5
-3 7 -17 4 -31 -5 -21 -3 -24 20 -24 14 0 26 -4 26 -10 0 -5 7 -10 15 -10 8 0
15 -9 15 -20 0 -12 16 -36 35 -56 19 -19 36 -44 36 -54 1 -11 3 -24 4 -30 1
-5 3 -18 5 -27 1 -11 3 -13 7 -5 6 14 43 16 43 2 0 -5 7 -10 15 -10 8 0 15 5
15 11 0 5 5 7 11 3 8 -5 10 1 7 20 -3 14 -1 26 3 26 5 0 9 -5 9 -11 0 -6 8 -8
19 -4 18 5 20 1 19 -70 -1 -57 -5 -78 -15 -82 -25 -10 -32 -45 -15 -78 9 -16
18 -40 19 -53 4 -22 1 -23 -34 -17 -25 4 -47 16 -64 36 -23 27 -27 29 -33 13
-3 -9 -9 -14 -13 -10 -3 3 -14 -1 -24 -10 -9 -8 -26 -16 -38 -17 -11 -1 -21
-5 -21 -10 0 -4 -6 -14 -12 -21 -11 -11 -15 -11 -26 3 -12 15 -13 14 -8 -1 3
-10 1 -18 -4 -18 -6 0 -10 5 -10 10 0 6 -7 10 -15 10 -8 0 -15 -5 -15 -11 0
-5 -4 -7 -10 -4 -5 3 -10 1 -10 -5 0 -7 -7 -9 -16 -6 -8 3 -12 2 -9 -4 3 -6 1
-10 -4 -10 -6 0 -11 4 -11 10 0 5 -5 9 -11 7 -7 -1 -16 13 -21 32 -7 26 -13
32 -28 28 -11 -3 -21 0 -23 6 -2 7 -19 -6 -38 -27 -33 -38 -34 -38 -39 -15 -3
13 -16 28 -28 34 -12 5 -22 13 -22 17 0 3 -14 0 -30 -8 -17 -9 -30 -19 -30
-24 0 -4 -9 -6 -20 -3 -11 3 -20 10 -20 15 0 6 -6 6 -14 -1 -8 -7 -29 -13 -46
-13 -24 -1 -35 -8 -46 -30 -8 -15 -18 -28 -23 -28 -19 0 -60 42 -54 55 3 8 0
15 -7 15 -6 0 -18 6 -26 14 -16 16 -55 10 -67 -11 -7 -12 -12 -12 -32 1 -22
15 -25 14 -56 -15 -27 -25 -39 -30 -66 -26 -25 4 -33 2 -33 -9 0 -8 -7 -14
-15 -14 -8 0 -15 5 -15 11 0 5 -4 8 -9 5 -9 -6 -31 36 -31 58 0 7 -7 13 -15
13 -8 0 -15 -5 -15 -11 0 -6 -4 -5 -9 2 -7 11 -11 11 -24 -2 -18 -18 -43 -21
-52 -6 -9 15 -27 12 -20 -3 3 -6 -1 -2 -10 9 -13 18 -22 20 -50 14 -21 -5 -35
-4 -35 1 0 19 -55 2 -66 -19 -6 -12 -13 -20 -16 -17 -7 8 -3 -29 6 -43 9 -15
-13 -25 -46 -20 -19 2 -23 9 -21 33 l2 30 -20 -26 c-18 -26 -24 -27 -115 -28
-86 -1 -95 0 -84 14 9 11 9 15 1 15 -7 0 -9 5 -5 11 4 7 0 9 -13 5 -10 -3 -28
1 -39 9 -10 8 -26 15 -34 15 -8 0 -26 12 -40 26 -13 15 -26 21 -28 15 -2 -6
-12 -11 -23 -11 -10 0 -19 -7 -19 -15 0 -20 -6 -19 -42 7 -28 19 -32 20 -43 5
-9 -13 -14 -14 -25 -4 -7 7 -10 7 -7 1 12 -22 -86 -10 -121 14 -25 18 -33 20
-37 10 -7 -17 -42 -21 -48 -4 -4 10 -23 12 -69 7 -5 -1 -8 -7 -8 -14 0 -7 -11
-24 -25 -39 -14 -15 -25 -32 -25 -38 0 -6 -12 1 -27 15 -15 14 -32 25 -36 25
-5 0 -20 14 -34 30 -21 26 -28 29 -41 18 -9 -7 -13 -8 -9 -2 3 6 0 11 -8 11
-8 0 -12 -4 -9 -9 3 -4 0 -8 -7 -8 -6 0 -9 -8 -6 -20 3 -11 1 -18 -4 -14 -5 3
-9 1 -9 -5 0 -5 5 -13 10 -16 6 -4 8 -11 4 -16 -8 -13 -24 -1 -24 17 0 17 -38
53 -57 54 -6 0 -20 15 -32 33 -11 17 -21 26 -21 18 0 -8 -7 -11 -19 -8 -11 3
-22 0 -24 -7 -10 -26 11 -116 29 -123 36 -14 6 -23 -76 -23 -84 0 -90 1 -90
20 0 22 -7 27 -59 34 -19 3 -37 9 -40 14 -11 16 -40 21 -50 8 -7 -8 -28 -12
-54 -11 -23 2 -52 -1 -64 -6 -18 -6 -23 -5 -23 6 0 18 -12 19 -28 3 -9 -9 -12
-8 -12 6 0 12 -5 16 -15 13 -8 -4 -17 -3 -19 2 -9 15 -139 10 -163 -6 -20 -13
-23 -13 -23 -1 0 33 -99 53 -101 21 -1 -10 -3 -25 -4 -33 -1 -8 -3 -21 -4 -28
-2 -18 -39 -52 -57 -52 -8 0 -12 5 -9 10 3 6 -3 10 -14 10 -15 0 -20 5 -18 21
2 11 10 25 18 30 26 16 -19 10 -53 -7 -38 -20 -52 -8 -57 49 -1 4 -34 7 -73 5
-60 -2 -73 -6 -70 -19 1 -11 -19 -24 -70 -45 -40 -15 -76 -32 -79 -37 -21 -30
-324 -13 -669 38 -14 2 -34 -3 -44 -11 -14 -10 -51 -14 -120 -15 l-101 -2 74
-7 c51 -6 77 -13 83 -24 7 -12 24 -16 66 -16 81 0 162 -11 156 -21 -8 -14 92
-11 226 7 67 8 124 14 126 11 2 -2 -27 -11 -65 -20 -112 -27 -127 -38 -46 -32
39 3 84 8 100 10 17 3 24 2 17 -1 -36 -17 17 -24 176 -24 126 -1 172 -4 159
-11 -23 -14 -12 -29 21 -30 24 0 25 -1 7 -9 -11 -5 -15 -9 -10 -10 6 -1 -6 -6
-25 -12 -19 -5 -323 -13 -680 -18 -355 -5 -656 -11 -670 -14 -74 -16 -1432 -7
-1449 10 -2 2 200 5 450 6 357 1 419 3 289 9 -91 4 -790 10 -1555 13 -764 4
-1400 9 -1412 11 -40 9 -25 25 25 26 l47 2 -52 10 c-29 5 -53 13 -53 17 0 9
176 18 519 26 224 6 260 9 240 20 -13 7 -22 14 -19 15 3 1 234 7 513 13 452
11 509 14 524 29 16 16 12 17 -72 18 -56 1 -79 4 -60 8 28 6 29 7 11 18 -21
12 -22 12 214 31 103 9 104 9 35 12 -48 1 -62 4 -45 9 24 7 24 7 -9 14 -18 4
-70 7 -115 7 -44 0 -114 7 -155 15 -40 9 -76 13 -79 10 -4 -3 4 -8 16 -12 l23
-6 -24 -12 c-24 -12 -94 -18 -392 -35 -492 -28 -910 -40 -1335 -40 -258 1
-479 -2 -492 -4 -13 -3 -114 -10 -224 -16 -175 -8 -205 -8 -232 6 -25 12 -70
14 -254 13 -156 -2 -245 1 -298 11 -41 8 -123 13 -182 12 l-106 -2 -6 28 c-2
15 -8 59 -11 97 -3 39 -19 165 -35 280 -15 116 -38 289 -50 385 -29 243 -37
287 -66 387 -14 49 -38 144 -54 214 -16 69 -36 145 -45 168 -20 56 -19 59 6
32 12 -12 23 -21 25 -19 10 11 -11 81 -31 100 -22 24 -49 87 -40 96 3 3 5 1 5
-4 0 -5 11 -22 25 -38 14 -16 25 -24 25 -17 0 21 -86 193 -147 296 -94 156
-139 242 -187 355 -95 227 -147 334 -195 409 -28 44 -60 103 -71 133 -27 68
-48 100 -61 93 -6 -4 -8 4 -5 20 5 27 -49 155 -65 155 -5 0 -9 9 -9 20 0 13
-12 28 -30 38 -16 9 -30 21 -30 25 0 5 -4 6 -9 2 -5 -3 -21 0 -35 6 -24 11
-28 20 -31 74 -1 11 -4 26 -9 33 -4 6 -4 17 -1 22 3 6 2 10 -2 10 -5 0 -15 16
-22 35 -7 19 -16 35 -21 35 -5 0 -21 25 -36 55 -18 40 -23 59 -15 68 12 15
-22 41 -54 42 -11 0 -20 5 -20 10 -1 6 -6 20 -13 31 -6 12 -9 24 -6 26 5 6
-58 38 -75 38 -10 0 -16 35 -12 68 1 6 -2 12 -8 12 -5 0 -8 14 -7 31 1 37 -28
64 -44 39 -5 -8 -10 -10 -10 -5 -1 6 -7 -5 -15 -22 -8 -18 -18 -33 -24 -33
-12 0 -71 58 -71 70 0 5 10 7 23 5 22 -4 22 -4 2 11 -11 8 -19 22 -17 31 2 9
-2 19 -9 23 -7 5 -14 23 -16 41 -2 18 -8 38 -13 43 -6 6 -10 20 -10 32 0 22
-42 43 -48 24 -2 -6 -8 -8 -13 -4 -5 3 -9 -6 -9 -20 0 -31 -14 -33 -32 -7 -7
10 -22 20 -33 23 -15 3 -19 11 -18 33 2 22 0 26 -7 15 -8 -13 -10 -12 -10 2 0
11 -19 27 -47 42 -53 27 -116 86 -92 86 10 1 8 5 -6 18 -22 18 -25 55 -7 88 9
17 7 24 -9 37 -10 9 -24 17 -29 17 -6 0 -10 16 -10 35 0 25 -4 33 -14 29 -8
-3 -17 0 -21 6 -6 9 -10 9 -16 -1 -8 -12 -10 -12 -18 0 -10 16 -69 21 -95 8
-12 -6 -21 -6 -25 0 -3 6 -12 12 -18 14 -10 3 -10 10 1 30 12 25 12 27 -14 43
-16 9 -35 16 -44 16 -16 0 -35 28 -42 63 -2 12 -12 33 -22 47 -11 14 -22 35
-26 48 -5 15 -15 22 -32 22 -23 0 -25 3 -20 31 2 17 2 28 -1 25 -4 -3 -12 -1
-19 5 -9 7 -19 7 -34 -1 -18 -10 -25 -8 -44 13 -13 14 -26 37 -30 52 -5 21
-12 26 -34 23 -16 -2 -26 -8 -24 -16 2 -10 -2 -10 -18 -2 -11 6 -20 15 -20 20
0 13 -57 13 -65 0 -8 -13 -35 6 -35 24 0 18 -45 58 -55 49 -4 -5 -6 -3 -2 2
11 20 -21 48 -49 42 -31 -6 -54 0 -54 15 0 5 5 6 12 2 8 -5 9 4 5 32 -4 21
-11 40 -17 42 -5 2 -10 18 -10 35 0 28 -3 32 -30 34 -22 2 -30 -2 -30 -14 0
-11 -6 -8 -21 11 -17 21 -24 24 -35 15 -8 -6 -14 -8 -14 -3 0 5 -7 -2 -16 -14
-8 -12 -21 -22 -27 -22 -21 0 -46 36 -36 51 11 18 11 32 0 25 -5 -3 -8 1 -7
10 0 10 -16 25 -39 37 -22 12 -48 32 -58 44 -10 13 -25 23 -33 23 -11 0 -13 6
-9 20 5 14 2 20 -9 20 -9 0 -16 4 -16 9 0 5 -16 8 -35 7 -19 -2 -35 0 -35 4 0
5 -8 6 -18 4 -9 -3 -26 3 -37 14 -14 13 -31 17 -55 14 -33 -3 -36 -1 -48 32
-12 32 -17 36 -47 36 -66 0 -114 34 -115 81 0 31 -26 42 -70 29 -17 -5 -30 -6
-30 -2 0 3 -5 1 -12 -6 -17 -17 -28 -15 -28 4 0 8 -7 22 -15 30 -8 9 -15 24
-15 34 0 10 -10 20 -22 24 -33 9 -38 8 -38 -8 0 -8 -10 -22 -22 -30 -24 -17
-55 -13 -103 15 -16 9 -44 20 -62 24 -17 3 -34 13 -37 21 -3 8 -11 14 -19 14
-28 0 -37 21 -22 51 14 26 13 28 -6 34 -12 4 -26 2 -32 -4 -14 -14 -81 -15
-72 -1 3 6 -1 10 -9 10 -9 0 -16 -4 -16 -10 0 -21 -18 -9 -30 20 -12 29 -13
29 -42 14 -39 -20 -83 -5 -73 25 3 10 -1 24 -10 31 -13 11 -22 10 -53 -4 -21
-9 -49 -14 -67 -11 -49 9 -97 27 -90 33 3 4 -11 11 -32 17 -31 9 -37 15 -35
33 2 12 -1 22 -7 22 -6 0 -8 6 -5 14 7 17 -49 39 -64 24 -6 -6 -18 2 -35 21
-17 20 -35 31 -52 31 -14 0 -24 -4 -21 -9 6 -9 -18 -33 -53 -51 -19 -10 -29
-9 -57 4 -19 9 -49 22 -66 30 -18 7 -44 18 -58 24 -14 6 -59 14 -100 16 -41 3
-154 16 -250 30 -96 13 -209 27 -250 31 -41 3 -133 13 -205 22 -107 12 -346
21 -606 23 -44 0 -46 1 -41 25 3 16 11 25 23 25 11 0 19 6 19 13 0 7 12 14 27
15 32 3 31 1 35 36 3 30 -3 35 -75 51 -25 5 -27 8 -16 21 18 22 19 41 4 71 -8
15 -12 30 -9 35 3 4 1 8 -3 8 -5 0 -9 9 -10 20 -1 11 2 18 8 15 5 -4 9 1 9 10
0 8 5 24 12 34 9 15 16 17 30 10 23 -12 23 -2 -2 38 -11 19 -14 30 -6 27 13
-5 61 31 61 46 0 5 2 11 5 14 9 8 -12 156 -22 156 -4 0 -8 -4 -8 -10 0 -5 -5
-10 -11 -10 -5 0 -7 6 -4 13 4 6 -2 3 -12 -8 -45 -49 -51 -50 -68 -10 -19 47
-19 55 0 55 9 0 18 12 22 30 3 17 12 30 19 30 8 0 14 7 14 15 0 8 7 15 15 15
11 0 13 8 9 33 -9 49 -13 59 -24 52 -5 -3 -10 -1 -10 5 0 6 -4 8 -10 5 -5 -3
-10 1 -10 9 0 8 -8 21 -18 28 -22 16 -30 102 -11 124 17 21 3 164 -18 179 -19
14 -19 112 2 339 13 140 19 478 8 420 -3 -16 -10 -20 -23 -17 -15 4 -20 -2
-25 -34 -9 -54 -13 -62 -16 -33 -1 14 -6 -4 -10 -40 -4 -36 -6 54 -4 198 3
211 1 263 -9 259 -20 -8 -35 27 -36 89 -1 53 15 160 19 124 1 -8 8 -1 16 15 7
17 14 24 14 17 1 -7 5 -11 10 -8 4 3 11 74 15 158 4 84 11 207 17 273 41 517
59 884 53 1134 -4 168 7 251 32 251 9 0 14 28 17 113 3 61 6 117 7 122 4 22
-8 173 -14 184 -4 6 -13 11 -19 11 -7 0 -6 -4 3 -11 12 -9 12 -10 -3 -5 -10 3
-21 6 -23 6 -2 0 -4 11 -4 25 0 15 8 29 21 36 15 8 19 8 15 0 -11 -18 -1 -13
35 17 29 23 34 34 37 78 4 56 -6 71 -37 55 -14 -8 -22 -7 -31 4 -7 8 -9 15 -4
15 5 0 2 6 -6 13 -23 18 -51 75 -41 81 5 3 23 1 40 -5 18 -6 35 -9 38 -5 4 3
1 6 -5 6 -7 0 -12 4 -12 9 0 5 8 7 18 4 25 -6 48 63 29 85 -7 8 -11 18 -9 21
1 3 -4 6 -10 6 -23 0 -19 32 6 48 23 16 24 18 10 46 -10 21 -20 28 -31 24 -10
-4 -14 -2 -10 4 5 7 -8 14 -33 18 -22 4 -38 11 -34 16 3 5 0 9 -5 9 -6 0 -11
7 -11 15 0 15 13 19 65 17 17 -1 24 1 18 4 -19 8 -16 21 5 20 9 -1 17 1 18 4
0 3 7 16 14 30 22 39 21 82 -1 87 -10 3 -17 9 -14 13 3 5 -4 6 -15 3 -19 -5
-20 -2 -14 38 4 24 10 49 14 54 4 6 6 19 4 29 -1 11 6 32 18 48 13 19 15 28 6
26 -9 -2 -12 6 -10 23 1 15 -6 33 -17 43 -16 15 -18 22 -9 40 6 11 14 28 18
36 10 20 50 19 75 -1 35 -28 56 -31 62 -9 3 11 12 20 21 20 8 0 24 8 35 18 19
16 20 16 14 0 -4 -10 -3 -18 1 -18 5 0 13 -12 19 -27 l11 -28 1 34 c1 25 5 32
16 27 13 -5 15 2 9 45 -7 50 -6 51 14 40 26 -14 29 -26 38 -138 3 -51 10 -90
15 -87 5 3 9 -2 9 -10 0 -8 9 -20 20 -26 16 -8 20 -8 20 3 0 8 10 26 21 41 20
26 21 36 17 179 -3 84 -9 160 -13 170 -5 13 -4 16 9 11 11 -4 19 1 24 16 11
31 23 24 55 -31 15 -27 34 -49 43 -49 13 0 9 12 -17 58 -18 31 -43 76 -57 100
-31 55 -12 56 44 1 30 -30 41 -36 40 -22 -2 22 -18 53 -90 167 -31 49 -54 91
-51 94 6 6 4 9 49 -58 20 -30 36 -49 36 -42 0 29 22 5 91 -100 79 -120 166
-234 156 -206 -5 15 -4 16 13 5 11 -6 20 -14 20 -18 0 -3 8 -14 18 -25 9 -10
31 -38 48 -62 24 -33 33 -39 38 -27 3 9 -1 27 -10 41 -16 23 -32 35 -18 12 4
-7 3 -8 -5 -4 -6 4 -9 11 -6 16 7 12 -17 51 -222 358 -171 254 -201 304 -171
286 7 -5 9 -2 6 7 -3 8 0 19 6 25 15 14 30 -1 100 -93 26 -35 53 -63 60 -63
14 0 89 -107 89 -127 0 -7 4 -13 9 -13 4 0 8 -5 8 -11 0 -5 36 -67 81 -136 44
-69 84 -135 89 -148 5 -12 25 -48 46 -80 30 -48 96 -170 113 -210 10 -24 -36
26 -90 97 -60 79 -91 109 -70 69 7 -12 10 -25 7 -29 -3 -5 8 -36 25 -70 16
-34 29 -67 29 -73 0 -10 41 -69 68 -97 6 -7 12 -20 12 -28 0 -20 -18 -9 -50
30 -57 68 -152 176 -155 176 -7 0 4 -38 20 -70 28 -55 2 -53 -42 4 -23 29 -48
53 -57 53 -18 0 -14 -10 56 -117 27 -41 37 -62 23 -47 -14 15 -25 24 -25 20 0
-4 -7 1 -15 11 -8 11 -15 17 -15 13 0 -14 122 -252 145 -282 12 -16 27 -40 34
-52 10 -20 9 -22 -6 -16 -12 5 -5 -10 20 -46 21 -29 36 -59 33 -66 -3 -8 6
-29 19 -47 13 -18 40 -66 61 -107 20 -41 47 -86 60 -100 13 -14 25 -29 25 -33
1 -5 2 -12 3 -16 1 -8 25 -40 67 -92 16 -19 15 -14 -5 24 -35 66 -27 70 10 4
37 -68 39 -72 24 -63 -9 6 -11 4 -6 -4 5 -7 11 -10 14 -7 9 10 34 -33 26 -46
-4 -6 -3 -8 3 -5 6 4 25 -16 42 -43 18 -28 33 -50 35 -50 1 0 2 9 2 19 0 11
-3 18 -7 15 -8 -5 -22 27 -14 34 3 3 5 0 5 -7 0 -7 4 -10 8 -7 4 2 29 -29 56
-71 36 -57 51 -72 59 -63 9 9 7 16 -8 29 -11 9 -21 23 -23 31 -2 8 -8 17 -13
18 -5 2 -9 8 -9 14 0 5 -26 56 -57 111 -32 56 -60 106 -62 111 -6 14 58 -60
118 -136 46 -60 71 -81 71 -62 0 3 -16 34 -35 68 -34 61 -46 104 -25 91 15 -9
12 1 -10 45 -11 22 -20 42 -20 45 0 13 27 2 54 -22 17 -16 24 -20 17 -10 -8 9
-12 19 -10 22 5 4 218 -280 338 -452 89 -127 331 -454 356 -481 l24 -26 -15
43 c-8 24 -13 45 -11 47 2 3 16 -8 31 -23 l27 -27 -6 29 c-4 17 -9 38 -12 47
-4 17 11 17 42 -1 21 -12 36 -9 31 5 -3 8 -2 13 3 9 5 -3 11 1 14 7 2 7 29
-25 60 -72 56 -85 137 -184 118 -143 -6 12 -8 29 -5 38 5 12 13 7 36 -25 17
-23 33 -38 36 -35 3 3 26 -14 50 -37 41 -40 43 -41 29 -13 -9 17 -46 66 -83
110 -120 143 -258 335 -240 335 2 0 44 -55 92 -121 87 -119 182 -239 244 -309
35 -39 35 -31 -1 63 -23 61 -20 79 11 60 15 -10 13 -1 -12 55 -17 37 -38 78
-48 92 -25 36 -73 133 -62 126 5 -3 71 -98 146 -211 132 -196 166 -242 130
-173 -9 17 -20 46 -25 62 l-8 31 36 -40 36 -40 -28 50 c-39 67 -125 235 -125
242 0 12 82 -103 121 -170 51 -87 130 -168 158 -162 13 2 28 -6 41 -23 12 -15
19 -20 15 -12 -4 8 5 2 19 -13 14 -15 26 -25 26 -22 0 3 -38 86 -85 183 -47
98 -85 184 -85 193 0 20 -69 149 -80 149 -11 0 -137 191 -202 305 -25 44 -67
130 -93 190 -26 61 -63 142 -83 180 -30 62 -32 67 -10 45 13 -14 23 -28 21
-32 -2 -5 0 -8 6 -8 5 0 41 -52 78 -115 37 -63 73 -115 80 -115 20 0 -83 170
-159 261 -37 46 -48 66 -28 54 37 -23 -38 140 -107 231 -14 18 -23 45 -23 65
0 19 -6 43 -14 54 -8 11 -39 67 -71 125 -31 58 -65 114 -75 125 -10 11 -23 34
-29 50 -10 28 -10 29 4 11 14 -19 15 -19 15 10 0 28 1 28 35 -20 19 -28 78
-118 131 -200 85 -134 183 -267 155 -209 -9 19 -8 20 11 15 20 -5 20 -3 -7 34
l-29 39 29 -25 28 -25 -27 38 c-26 34 -46 52 -30 25 4 -7 3 -8 -5 -4 -6 4 -9
11 -6 16 3 5 -34 65 -82 135 -49 69 -108 158 -133 197 -150 238 -341 518 -460
675 -36 47 -71 97 -79 112 -32 62 -100 163 -171 256 -119 155 -159 218 -128
199 19 -12 -30 48 -52 63 -12 9 -20 10 -20 4 0 -6 -4 -11 -9 -11 -4 0 -6 10
-4 23 4 17 -2 25 -27 34 -21 8 -29 16 -24 24 5 9 1 10 -14 7 -12 -4 -22 -2
-22 3 0 5 6 9 13 9 8 0 7 4 -3 10 -13 9 -13 12 3 24 14 11 15 15 5 19 -9 4 -8
6 3 6 21 1 32 61 12 68 -7 3 -10 9 -7 14 3 5 -6 9 -20 9 -23 0 -24 3 -19 35 5
34 5 35 -28 36 -26 0 -30 2 -15 8 31 12 3 22 -41 15 l-38 -6 26 24 c30 26 45
78 23 78 -13 0 -18 13 -15 33 1 4 -3 16 -9 27 -8 16 -15 18 -34 10 -23 -8 -24
-8 -16 22 5 16 13 35 19 41 10 13 -7 43 -24 42 -18 -1 -75 -30 -75 -38 0 -5
-4 -6 -9 -3 -5 3 -7 15 -4 26 3 11 9 18 13 15 14 -9 23 15 25 69 3 58 -15 82
-47 62 -10 -6 -18 -16 -18 -23 0 -20 -24 -21 -57 -1 -18 11 -41 17 -51 14 -13
-4 -19 -1 -19 9 0 8 5 15 11 15 6 1 -6 10 -26 21 -43 22 -45 29 -22 64 25 38
12 75 -26 75 -19 0 -29 5 -27 13 1 6 -5 10 -13 9 -8 -2 -28 -6 -44 -8 -27 -3
-28 -2 -22 28 l6 32 -35 -34 c-19 -19 -35 -29 -35 -24 0 6 9 19 20 29 11 10
20 23 20 28 0 6 7 19 17 29 14 15 14 18 1 18 -9 0 -22 19 -32 45 -10 24 -23
43 -29 42 -7 -1 -11 3 -10 10 2 7 -4 10 -12 7 -9 -4 -15 0 -15 10 0 26 -46 24
-67 -2 -11 -16 -12 -15 -14 3 -1 11 -1 24 0 29 1 5 -5 6 -14 3 -19 -8 -45 2
-45 17 0 6 -9 12 -20 12 -11 0 -20 -4 -20 -7 0 -4 -9 -10 -20 -14 -24 -8 -105
16 -89 26 6 4 8 12 4 18 -5 9 -11 9 -22 -1 -15 -12 -15 -10 0 18 10 20 12 35
6 45 -12 19 -11 25 7 43 14 14 14 16 0 16 -10 0 -13 6 -9 17 4 11 3 14 -5 9
-17 -10 -15 5 3 31 14 20 14 22 -7 25 -15 2 -24 11 -26 26 -3 22 -7 25 -37 25
-29 0 -34 -3 -38 -20 -3 -13 -5 -12 -6 5 -1 23 -1 23 -27 -5 -14 -15 -22 -22
-18 -14 5 9 3 12 -4 7 -7 -4 -12 -15 -12 -24 0 -15 -2 -15 -10 -2 -6 10 -10
11 -10 3 0 -7 -4 -13 -10 -13 -6 0 -9 3 -9 8 7 40 -1 49 -41 46 -36 -2 -40 0
-35 17 5 15 1 19 -17 20 -97 2 -123 14 -115 50 3 8 -2 24 -9 34 -22 29 -17 46
23 87 20 21 34 41 30 45 -4 4 -13 1 -19 -5 -19 -19 -33 -14 -16 6 17 18 8 62
-12 62 -6 0 -9 4 -5 9 3 6 -4 15 -15 21 -11 6 -20 17 -20 25 0 18 -1 18 -34 5
-17 -6 -26 -6 -26 0 0 19 -21 10 -52 -20 -33 -34 -43 -38 -34 -14 4 9 -9 2
-29 -15 -40 -34 -53 -38 -61 -16 -5 13 -9 13 -35 -1 -29 -15 -29 -14 -29 16 0
18 -4 29 -10 25 -14 -9 -12 1 5 35 15 28 14 30 -3 30 -11 0 -27 -11 -38 -24z
m-1694 -3996 c0 -5 -7 -16 -16 -24 -8 -9 -13 -16 -9 -16 3 0 1 -6 -5 -12 -28
-33 -90 -123 -90 -130 0 -4 -24 -35 -52 -67 -29 -33 -88 -100 -131 -149 -43
-50 -87 -92 -97 -95 -24 -6 -26 6 -5 23 9 7 13 20 10 29 -3 8 -3 12 1 9 4 -4
16 4 26 18 11 14 18 28 14 31 -3 4 -6 0 -6 -7 0 -7 -3 -11 -6 -7 -10 9 102
144 116 141 5 -2 39 37 125 142 22 27 56 65 75 84 19 19 33 39 32 43 -1 5 2 6
8 2 5 -3 10 -10 10 -15z m2014 -1895 c1 -500 5 -1040 8 -1200 4 -159 3 -267
-1 -240 -7 46 -8 42 -11 -45 l-3 -95 -8 70 c-4 39 -14 169 -22 290 -16 240
-28 303 -38 195 -10 -110 -9 277 1 535 5 132 11 530 12 885 3 724 6 902 16
896 4 -2 5 16 3 41 -2 32 0 43 8 39 7 -5 12 3 13 21 7 124 20 -648 22 -1392z
m1231 -3220 c50 -8 180 -29 290 -46 228 -35 423 -78 405 -89 -7 -4 7 -12 35
-19 71 -18 47 -35 -39 -27 -122 11 -159 16 -236 31 -41 8 -95 14 -120 13 -25
-1 -92 6 -150 15 -58 9 -148 19 -201 21 -113 6 -145 12 -182 40 -19 14 -24 22
-15 28 10 6 9 8 -2 8 -13 0 -13 2 0 9 8 6 18 7 24 4 5 -4 7 1 3 10 -5 15 1 17
46 17 29 0 93 -7 142 -15z m-455 -46 c28 -6 49 -13 46 -16 -3 -3 -112 -7 -243
-9 -131 -2 -261 -6 -289 -8 -40 -3 -53 -1 -62 14 -6 10 -8 21 -5 24 11 11 500
6 553 -5z m740 -990 c451 -94 597 -140 932 -291 87 -39 155 -74 153 -79 -3 -4
4 -5 15 -2 18 5 92 -25 260 -106 46 -22 214 -132 558 -364 34 -23 132 -97 217
-164 85 -67 167 -129 184 -138 37 -19 77 -67 116 -142 20 -37 49 -73 85 -101
31 -25 66 -65 80 -91 14 -26 35 -60 48 -77 38 -48 186 -265 215 -315 15 -25
24 -50 19 -55 -4 -5 -3 -6 2 -2 4 4 14 2 20 -5 20 -21 77 -115 75 -123 -4 -16
13 -44 22 -38 5 3 9 -4 9 -16 0 -12 5 -18 10 -15 6 3 11 0 11 -7 3 -28 5 -34
26 -74 23 -42 21 -63 -4 -43 -14 12 -17 4 -14 -32 1 -9 -5 -22 -14 -29 -8 -7
-15 -9 -16 -4 0 5 -4 0 -8 -10 -6 -16 -16 -5 -59 60 -78 118 -78 119 -186 258
-189 245 -389 468 -535 594 -54 47 -63 52 -76 38 -17 -17 -20 -36 -5 -36 19 0
159 -201 170 -243 6 -23 13 -47 15 -53 2 -6 60 -96 130 -198 129 -190 149
-235 122 -270 -12 -16 -6 -31 56 -145 38 -69 82 -153 98 -186 16 -33 33 -67
38 -75 28 -45 274 -645 318 -775 40 -118 90 -288 98 -330 8 -46 15 -152 9
-137 -3 6 -12 12 -20 12 -10 0 -12 -9 -8 -32 10 -55 -13 -12 -42 79 -14 45
-32 88 -40 94 -8 6 -14 23 -14 36 0 17 -4 23 -13 20 -9 -3 -17 12 -25 53 -7
32 -19 60 -26 63 -8 3 -17 29 -21 66 -4 34 -12 64 -17 67 -7 4 -8 -8 -2 -37 4
-24 7 -53 6 -64 -3 -53 22 -391 29 -401 5 -6 20 -9 33 -7 26 5 26 6 40 -96 6
-40 -12 -213 -22 -220 -11 -7 -32 -76 -32 -105 0 -12 5 -16 14 -13 8 3 20 0
26 -8 6 -8 18 -11 26 -8 8 3 14 0 14 -7 0 -6 -4 -9 -9 -5 -5 3 -17 -5 -25 -17
-9 -13 -24 -23 -34 -23 -11 0 -18 -9 -20 -29 -3 -26 -1 -28 22 -24 l25 5 -22
-28 c-12 -15 -32 -33 -44 -40 -28 -15 -30 -29 -4 -29 20 0 37 -32 26 -50 -9
-14 14 -52 27 -44 7 5 9 2 5 -9 -5 -14 -1 -13 29 4 l36 20 -7 -21 c-7 -23 -2
-25 27 -9 14 8 23 8 31 0 8 -8 8 -11 -1 -11 -8 0 -10 -9 -6 -26 5 -18 3 -25
-4 -20 -6 3 -13 -6 -17 -23 -3 -16 -13 -35 -20 -41 -12 -10 -12 -15 2 -36 13
-20 14 -30 4 -51 -9 -20 -9 -29 1 -41 11 -13 11 -14 -1 -7 -11 6 -13 2 -8 -21
4 -22 -1 -34 -19 -51 -14 -13 -27 -23 -30 -23 -9 0 -84 -55 -84 -61 0 -4 10
-9 22 -13 22 -5 22 -6 3 -20 -20 -15 -19 -15 3 -9 25 6 29 -8 7 -27 -18 -15
-49 -5 -40 12 4 7 -1 4 -9 -6 -9 -11 -19 -35 -22 -53 l-6 -34 -19 31 c-11 17
-19 47 -19 68 0 27 -3 33 -10 22 -8 -13 -10 -12 -10 3 0 19 1 18 -49 21 -19 1
-35 -3 -38 -11 -3 -7 -9 -10 -14 -7 -8 4 -14 -26 -10 -49 1 -5 -3 -6 -9 -2 -5
3 -10 1 -10 -6 0 -26 -19 7 -22 36 -2 26 -6 30 -32 30 -16 0 -31 -6 -34 -13
-2 -6 -8 -10 -13 -6 -5 3 -9 -1 -9 -8 0 -8 -15 -19 -33 -26 -42 -15 -177 -16
-177 -2 0 7 -6 8 -14 3 -19 -10 -507 1 -901 20 -170 9 -398 18 -505 21 -180 5
-191 4 -140 -9 58 -15 246 -31 523 -45 93 -4 171 -10 173 -13 3 -2 -78 -7
-178 -11 -101 -3 -249 -12 -330 -18 -116 -9 -194 -9 -360 1 -117 7 -215 16
-218 20 -3 4 -27 14 -55 21 -64 18 -57 17 -112 19 -35 1 -44 4 -33 11 8 5 29
10 45 10 17 0 36 4 44 9 11 7 10 11 -6 19 -18 10 -591 55 -853 67 -69 3 -156
8 -195 10 -180 11 -439 17 -490 10 -43 -5 -55 -10 -51 -21 3 -8 4 -14 2 -14
-3 0 -11 -2 -18 -5 -8 -3 -27 6 -44 20 -16 14 -33 25 -38 25 -5 0 -6 3 -3 7 4
3 2 12 -4 20 -8 8 -8 17 -2 26 21 26 21 45 2 66 -12 12 -25 18 -32 14 -22 -14
-38 -12 -35 5 2 9 13 19 26 22 23 5 56 55 46 71 -3 5 5 18 17 28 12 10 24 28
26 41 4 25 -14 53 -28 44 -5 -2 -2 14 6 37 13 37 13 45 0 72 -8 17 -15 36 -15
44 0 7 -7 16 -15 19 -8 4 -12 10 -9 15 3 5 -4 9 -15 9 -12 0 -21 5 -21 11 0 8
13 10 36 6 33 -6 35 -5 18 8 -18 14 -18 14 3 15 17 0 24 8 29 36 4 21 2 39 -3
43 -6 3 -15 16 -22 29 -7 12 -15 20 -19 18 -5 -3 -9 4 -9 15 -1 11 5 19 13 19
10 0 13 6 10 18 -7 20 3 36 27 45 9 3 17 15 17 25 0 11 6 25 13 31 16 13 10
71 -7 71 -7 0 -19 11 -26 25 -10 19 -10 27 -1 39 8 10 9 16 2 21 -7 4 -6 15 4
34 13 27 11 71 -5 71 -4 0 -4 17 0 37 7 28 5 39 -6 48 -8 5 -17 25 -19 42 -3
25 0 33 15 38 11 4 25 3 32 -1 7 -5 1 8 -13 27 -26 34 -27 35 -8 59 11 14 22
30 26 35 11 13 11 65 1 65 -13 0 -9 28 6 43 24 24 16 117 -11 143 -13 12 -23
24 -23 28 0 14 30 37 40 31 14 -9 12 8 -2 24 -10 11 -10 13 0 7 6 -4 12 -3 12
1 0 14 -24 63 -32 63 -9 0 15 50 24 50 12 0 39 60 33 70 -3 5 -1 18 4 29 8 14
6 24 -8 42 -17 22 -30 89 -33 167 -1 34 -18 46 -18 13 0 -11 -4 -23 -10 -26
-6 -4 -10 -53 -10 -116 0 -60 -4 -109 -8 -109 -13 0 -32 -110 -33 -191 0 -62
-25 -183 -28 -141 -1 7 -5 11 -10 8 -22 -14 -27 150 -11 389 12 188 15 643 5
836 -8 156 3 495 14 451 3 -13 7 120 8 295 2 175 7 332 12 348 l9 30 1 -30 c1
-23 4 -27 11 -15 6 10 10 -45 11 -165 1 -99 5 -166 8 -150 4 17 11 -70 16
-200 5 -135 11 -216 15 -195 9 41 30 128 38 150 3 8 6 17 7 20 0 3 9 20 18 38
14 26 15 32 3 32 -22 0 -34 74 -20 127 8 29 24 20 25 -15 l1 -27 8 25 c10 32
12 120 3 120 -23 1 -34 18 -25 36 6 11 13 31 17 47 8 39 25 33 25 -9 0 -46 24
-41 28 6 2 19 9 39 17 44 27 23 28 90 0 80 -11 -5 -20 6 -24 31 -1 6 -11 19
-22 31 -16 17 -18 26 -10 47 7 17 18 27 31 27 34 0 22 20 -25 40 -42 18 -44
21 -33 40 7 11 21 23 31 26 39 12 55 43 56 110 0 40 -3 63 -9 59 -5 -3 -8 0
-5 7 8 23 -11 40 -49 41 -20 1 -36 5 -36 10 0 4 -4 6 -9 3 -15 -10 -20 33 -6
48 9 8 10 17 4 23 -5 5 -13 30 -18 55 -6 37 -5 48 6 52 8 3 13 14 12 23 -3 32
1 44 11 38 9 -5 14 16 13 53 -1 6 5 12 12 12 18 0 7 38 -15 50 -22 12 -25 70
-3 70 10 0 13 6 9 16 -3 8 -2 12 4 9 6 -3 10 1 10 9 0 9 5 16 10 16 6 0 10 -4
10 -9 0 -9 30 -21 60 -26 9 -1 26 -7 38 -14 19 -10 25 -9 40 5 22 22 22 46 1
61 -19 14 -34 58 -16 46 7 -5 28 -13 47 -19 31 -9 35 -14 32 -40 -2 -22 0 -26
8 -14 8 12 10 11 10 -7 0 -16 6 -23 20 -23 11 0 20 -5 20 -11 0 -6 6 -9 14 -6
8 3 18 -5 25 -19 12 -27 58 -34 67 -9 9 23 42 18 60 -10 15 -23 17 -23 39 -9
18 12 22 21 18 49 -3 27 -1 35 10 35 9 0 23 3 33 7 14 5 16 1 12 -25 -5 -33 3
-38 56 -32 13 1 16 -2 10 -12 -5 -9 -2 -8 11 2 11 9 16 10 11 2 -8 -14 49 -43
70 -35 6 2 14 -3 18 -12 3 -9 11 -13 17 -9 6 3 21 -5 33 -19 11 -14 33 -28 48
-31 22 -5 30 -2 40 18 13 24 14 24 45 10 18 -9 34 -26 37 -40 5 -18 13 -24 34
-24 15 0 35 -7 45 -14 10 -8 31 -12 47 -10 20 4 32 -1 42 -15 20 -28 78 -33
78 -6 0 8 3 15 8 14 15 -2 52 14 52 23 0 13 26 38 33 31 7 -6 32 -10 85 -12
36 -1 40 -15 15 -44 -16 -18 -16 -20 -2 -14 13 4 16 1 12 -13 -8 -28 30 -44
63 -27 l27 14 -27 7 c-32 8 -34 22 -3 30 49 12 372 -81 590 -170 120 -49 117
-48 117 -34 0 18 -84 65 -171 94 -46 16 -89 35 -95 42 -18 22 -219 97 -551
206 -172 57 -313 106 -313 111 0 4 16 5 35 1 50 -9 45 12 -6 27 -37 12 -39 14
-19 21 13 5 47 4 78 -2 67 -12 64 -12 57 -1 -3 5 3 11 12 13 10 2 -38 17 -106
33 l-125 30 45 9 44 9 -48 13 c-137 36 13 30 193 -7z m-2607 -161 c-2 -4 1 -9
7 -13 5 -3 10 -1 10 6 0 9 3 10 10 3 11 -11 70 -6 70 6 0 4 24 7 53 7 47 1 55
-3 89 -38 21 -22 44 -39 53 -39 11 0 15 -7 13 -22 -2 -15 -9 -22 -20 -20 -12
2 -16 -2 -12 -13 3 -8 11 -15 18 -15 6 0 5 -4 -3 -9 -12 -8 -12 -12 -2 -24 9
-11 9 -17 1 -22 -8 -5 -6 -13 6 -26 23 -26 31 -99 10 -99 -9 0 -16 -7 -16 -15
0 -8 -9 -15 -21 -15 -11 0 -18 -4 -15 -9 4 -5 -2 -7 -12 -4 -15 3 -18 -1 -16
-26 3 -41 26 -90 45 -96 19 -6 33 -85 18 -99 -5 -6 -9 -20 -9 -32 0 -31 -10
-55 -21 -48 -14 8 -11 -80 3 -94 8 -8 8 -12 1 -12 -9 0 -10 -28 -4 -144 1 -20
1 -20 15 -1 13 18 14 15 20 -35 7 -71 23 -328 37 -595 10 -207 20 -261 33
-190 12 60 23 31 31 -75 4 -56 9 -99 11 -97 3 2 11 64 19 137 7 72 16 134 19
138 3 3 6 -108 6 -247 0 -235 1 -252 17 -249 30 6 50 245 58 711 5 224 11 405
14 401 3 -3 6 -106 6 -230 0 -162 4 -227 13 -236 7 -7 13 -37 13 -68 1 -30 4
-46 6 -34 2 11 17 28 32 37 36 21 38 21 44 0 3 -10 5 -2 6 17 1 19 6 42 12 50
12 18 7 -205 -16 -655 -18 -352 -17 -334 -5 -315 7 11 10 3 11 -30 1 -38 2
-41 9 -20 l8 25 1 -25 c3 -58 26 18 42 140 l17 125 1 -181 c0 -100 4 -197 8
-215 7 -33 7 -33 14 -9 5 17 8 3 9 -45 3 -62 4 -66 10 -30 5 28 8 3 10 -85 4
-187 16 -359 20 -290 7 116 19 -224 20 -540 0 -346 -7 -523 -21 -514 -5 3 -10
4 -11 2 -1 -2 -5 -82 -8 -178 -4 -109 -13 -194 -22 -225 -8 -27 -18 -86 -22
-130 -5 -58 -11 -84 -24 -93 -9 -7 -17 -26 -17 -42 0 -24 -8 -35 -34 -51 -18
-11 -36 -17 -40 -14 -3 4 -6 73 -6 154 -1 80 -4 151 -7 157 -4 5 -10 66 -13
134 -4 69 -8 126 -10 128 -11 12 -25 -153 -25 -296 0 -94 -4 -173 -9 -176 -11
-7 -21 94 -21 220 0 111 -9 158 -21 114 -5 -18 -7 -10 -8 29 -1 30 -3 52 -5
50 -9 -10 -16 -124 -16 -266 l0 -153 -25 12 c-21 9 -25 18 -25 55 0 25 -4 42
-9 38 -17 -10 -20 10 -25 170 -3 86 -6 159 -8 160 -2 1 -14 6 -27 10 l-23 7 3
-240 c4 -220 3 -241 -13 -251 -28 -17 -38 -13 -53 22 -11 28 -18 32 -47 30
-18 -1 -34 -2 -35 -2 -2 -1 -6 -1 -10 0 -11 1 -24 -31 -17 -43 5 -7 3 -8 -6
-3 -10 6 -12 3 -8 -13 7 -23 -17 -20 -26 4 -3 8 -11 14 -18 14 -7 0 -20 13
-29 29 -14 23 -22 28 -43 24 -25 -5 -51 -34 -40 -45 9 -10 14 -77 5 -82 -12
-8 -74 14 -88 31 -7 9 -13 11 -18 4 -3 -6 -13 -11 -21 -11 -8 0 -27 -9 -42
-20 -15 -11 -42 -21 -60 -22 -32 -3 -35 0 -52 42 -11 27 -19 37 -20 25 0 -15
-3 -17 -9 -7 -12 20 -79 5 -92 -20 -6 -11 -9 -31 -6 -44 5 -28 -11 -43 -23
-23 -5 7 -12 34 -15 60 -5 35 -10 46 -21 42 -8 -3 -14 1 -14 10 0 12 -10 15
-40 14 -25 -1 -40 -6 -40 -14 0 -19 -13 -16 -40 9 -37 34 -74 32 -117 -8 -35
-32 -39 -33 -50 -17 -7 9 -13 13 -13 8 0 -5 -7 0 -15 11 -9 12 -14 14 -15 6 0
-7 -4 -11 -10 -7 -5 3 -7 13 -4 23 4 10 3 13 -3 6 -24 -32 -89 -45 -99 -20 -4
11 -17 13 -47 9 -23 -2 -50 -5 -59 -6 -9 -1 -16 -4 -16 -7 2 -22 -6 -29 -31
-28 -32 1 -47 30 -34 65 4 11 -9 4 -35 -20 -42 -37 -43 -37 -63 -18 -23 21
-90 35 -99 20 -4 -5 -14 -7 -23 -3 -9 3 -14 11 -11 16 4 6 -1 8 -14 4 -11 -4
-23 -2 -27 4 -3 6 -11 8 -16 4 -5 -3 -16 0 -24 6 -11 9 -18 10 -29 1 -10 -8
-21 -9 -42 -1 -15 6 -33 9 -40 6 -8 -3 -25 1 -40 8 -23 13 -28 12 -46 -6 -13
-13 -17 -25 -12 -36 4 -9 8 -21 8 -25 1 -4 8 -12 16 -18 12 -8 10 -9 -7 -4
-14 4 -23 2 -23 -4 0 -18 -25 -12 -40 8 -7 11 -17 18 -22 15 -4 -3 -8 1 -8 8
0 10 -2 10 -9 -1 -5 -8 -18 -12 -29 -9 -16 5 -19 2 -14 -11 5 -13 3 -14 -9 -5
-8 7 -38 15 -66 19 -51 7 -53 8 -54 38 0 26 -2 28 -8 13 -7 -19 -8 -19 -13 1
-5 17 -12 21 -42 19 -20 -2 -39 -5 -42 -8 -3 -3 -23 3 -45 14 -22 10 -43 17
-48 14 -9 -6 -41 29 -41 47 0 7 -5 5 -10 -5 -6 -10 -18 -14 -30 -11 -16 4 -18
1 -14 -22 3 -19 1 -24 -7 -19 -7 4 -5 -3 4 -15 17 -25 13 -49 -12 -67 -18 -14
-54 4 -47 22 2 6 -2 11 -9 11 -7 0 -11 -7 -8 -16 4 -14 3 -14 -5 -2 -7 10 -7
21 -1 34 9 17 8 17 -10 7 -12 -6 -27 -20 -34 -30 -17 -28 -42 -25 -65 6 -15
22 -28 27 -63 29 -24 1 -54 5 -66 9 -15 5 -31 2 -45 -8 -12 -9 -18 -16 -13
-16 6 0 10 -13 10 -29 1 -27 -1 -28 -37 -26 -44 3 -88 -32 -88 -71 0 -12 -4
-26 -10 -29 -5 -3 -10 -1 -10 6 0 8 -3 9 -13 0 -8 -6 -17 -8 -20 -4 -11 11 -8
48 5 61 16 16 -5 17 -33 2 -13 -8 -19 -7 -19 0 0 6 -5 8 -10 5 -6 -4 -8 -12
-4 -18 3 -7 -1 -4 -10 7 -8 10 -22 16 -30 13 -9 -4 -18 -2 -20 2 -6 9 -65 25
-80 22 -4 -1 -24 7 -43 19 -19 11 -32 16 -28 10 3 -5 -6 -15 -21 -23 -24 -13
-25 -15 -9 -30 10 -11 12 -17 4 -17 -6 0 0 -10 15 -21 18 -14 24 -25 17 -32
-5 -5 -7 -16 -4 -24 5 -13 3 -13 -17 -1 -18 10 -24 10 -27 1 -10 -27 -31 -11
-43 32 -7 25 -17 48 -23 52 -6 3 -7 1 -3 -5 3 -6 2 -13 -4 -17 -5 -3 -10 1
-10 10 0 13 -7 15 -35 9 -28 -5 -35 -3 -35 10 0 9 -8 16 -20 16 -11 0 -20 4
-20 10 0 5 -7 7 -15 4 -8 -4 -15 -12 -15 -20 0 -8 -4 -14 -10 -14 -5 0 -10
-14 -10 -31 0 -16 -4 -28 -9 -25 -4 3 -7 -8 -5 -24 3 -22 -1 -30 -17 -35 -11
-4 -26 -2 -33 4 -8 6 -21 9 -29 5 -12 -4 -15 -1 -12 15 2 12 0 19 -6 16 -13
-8 -69 33 -69 50 0 8 -6 12 -14 9 -7 -3 -16 2 -20 11 -4 11 -12 14 -27 10 -12
-4 -27 -8 -33 -9 -7 -1 -23 -11 -36 -23 -12 -12 -27 -20 -32 -17 -4 3 -8 0 -8
-6 0 -7 -8 -9 -20 -5 -11 4 -20 2 -20 -4 0 -6 -4 -11 -10 -11 -14 0 -13 33 2
48 19 19 -22 15 -65 -7 -36 -18 -38 -18 -47 -1 -5 9 -7 20 -4 23 9 9 -64 59
-76 52 -6 -4 -17 0 -23 8 -20 24 -42 26 -67 7 -22 -16 -23 -22 -14 -57 9 -34
7 -40 -15 -60 -17 -15 -29 -19 -35 -13 -6 6 -19 10 -29 10 -16 0 -19 6 -15 33
l4 34 -31 -16 c-16 -9 -31 -19 -33 -23 -8 -17 -23 -7 -17 11 5 15 -2 23 -27
35 -18 9 -48 17 -65 18 -33 2 -42 11 -22 23 14 9 -18 45 -40 45 -10 0 -12 3
-6 8 6 4 10 19 10 34 -1 19 8 34 27 48 15 11 28 27 28 34 0 7 9 21 19 30 23
21 21 44 -4 62 -15 11 -16 16 -5 29 7 8 9 15 4 15 -4 0 4 13 19 28 20 20 24
31 16 39 -14 14 9 81 32 94 24 13 13 56 -17 63 -13 4 -24 11 -24 16 0 5 6 7
14 4 9 -3 17 3 21 15 3 12 10 21 15 21 12 0 1 28 -25 65 -27 37 -28 91 -2 89
14 -2 15 1 7 12 -15 17 -20 63 -8 70 5 3 16 0 25 -8 18 -14 18 -14 -3 37 -3 8
-1 15 6 15 6 0 9 4 6 9 -3 5 0 11 8 14 11 4 25 41 30 80 1 5 10 15 20 23 11 8
16 14 10 14 -5 1 0 8 11 18 27 23 25 45 -8 80 -29 31 -35 52 -13 52 7 0 25 15
38 33 27 34 24 72 -7 83 -8 3 -12 10 -9 15 3 5 0 9 -5 9 -21 0 -11 19 17 31
22 10 28 18 24 36 -2 13 1 23 7 23 6 0 11 6 11 14 0 8 14 17 30 21 17 4 28 11
24 16 -3 5 -1 9 5 9 6 0 8 7 4 16 -3 10 0 20 9 25 10 5 14 18 10 34 -4 24 -16
30 -55 25 -16 -1 -17 2 -8 19 13 24 31 36 31 22 0 -6 4 -11 10 -11 5 0 7 7 4
15 -4 8 1 17 10 21 9 3 16 12 16 19 0 7 15 16 33 19 27 5 32 11 34 36 2 21 -2
30 -12 30 -20 0 -19 13 3 36 16 16 17 22 5 44 -19 38 -16 57 12 64 25 6 28 15
28 81 0 18 8 35 19 43 10 7 16 18 13 23 -4 5 2 9 13 9 10 0 19 7 20 15 1 8 3
22 4 30 1 8 5 15 10 15 5 0 6 5 3 10 -4 6 -1 17 5 25 7 8 9 15 5 15 -10 0 33
38 48 43 7 2 11 29 12 65 0 34 3 63 8 63 4 1 12 2 19 3 7 0 15 17 19 36 4 19
16 41 26 50 11 8 25 24 32 35 10 17 12 17 7 2 -10 -32 54 21 66 54 5 15 18 31
27 34 14 4 17 14 15 36 -2 18 0 28 6 24 6 -3 10 1 10 9 0 9 6 16 14 16 16 0
27 43 15 61 -10 17 15 39 45 39 22 0 26 5 26 28 0 16 -9 39 -20 52 -24 28 -25
39 -5 47 19 7 85 107 85 128 0 20 17 27 37 17 24 -13 64 3 70 28 3 11 9 20 14
20 5 0 9 7 9 15 0 8 4 15 10 15 5 0 7 7 4 15 -4 8 -11 12 -18 9 -6 -4 7 10 28
30 22 19 47 38 56 41 20 6 15 54 -6 62 -8 3 -14 9 -14 14 0 6 8 6 19 0 14 -8
22 -6 35 8 9 9 16 23 16 29 0 13 10 15 51 12 14 0 31 5 37 13 13 15 6 77 -9
77 -4 0 3 11 16 25 14 13 25 29 25 35 0 5 21 16 47 23 40 10 49 18 64 52 14
31 19 36 24 22 4 -9 11 -15 15 -12 5 3 11 1 15 -5 12 -20 46 -9 80 25 20 19
35 38 34 42 -6 36 3 53 26 53 14 0 25 5 25 11 0 6 9 4 22 -5 17 -12 25 -13 37
-3 12 10 13 9 6 -3 -8 -13 -7 -13 8 -1 9 7 17 22 17 32 0 11 5 19 10 19 6 0
10 6 10 14 0 15 40 15 86 1 29 -9 52 20 36 46 -17 27 -16 28 29 35 22 4 48 14
57 23 24 24 63 39 90 35 16 -3 21 0 16 8 -5 8 2 9 23 5 17 -3 35 -1 42 6 14
14 14 47 -1 47 -6 0 -8 3 -5 7 4 3 -1 12 -11 20 -9 8 -11 11 -4 8 15 -8 72 13
72 26 0 5 6 9 14 9 7 0 21 11 30 25 9 14 25 25 36 25 10 0 21 4 25 10 3 5 41
8 85 7 44 -1 79 2 79 7 0 5 5 12 12 16 9 6 4 16 -15 35 -31 31 -30 68 1 44 12
-10 14 -10 9 -1 -10 17 2 15 21 -3 22 -23 93 -7 93 21 0 9 12 14 30 15 47 2
50 3 60 18 10 18 47 22 77 8 45 -20 69 39 31 74 -10 9 -18 28 -18 42 0 20 7
28 35 38 19 7 35 19 35 27 0 9 9 12 28 10 19 -2 26 -8 24 -20 -2 -10 1 -18 5
-18 13 1 53 37 53 49 0 18 16 13 31 -9 11 -17 26 -22 77 -24 56 -2 64 0 77 21
14 21 14 24 0 29 -27 11 -16 27 14 21 31 -6 71 21 71 48 0 8 5 15 10 15 6 0
10 -6 10 -12 0 -8 3 -9 8 -3 4 6 27 10 52 10 52 -1 67 10 75 56 5 31 27 59 47
59 4 0 10 -11 14 -25 8 -32 30 -18 39 26 7 29 20 38 27 18 2 -6 21 -11 42 -11
21 0 43 5 49 11 6 6 23 11 38 11 18 0 35 10 50 29 15 20 26 26 31 18 5 -8 13
-8 30 0 79 38 184 48 199 20 6 -10 16 -14 27 -10 25 9 32 24 25 52 -4 16 -2
22 5 17 6 -3 13 -2 16 3 6 10 20 9 46 -3 36 -16 65 0 78 42 8 23 20 42 28 42
8 0 14 4 14 10 0 5 10 -1 23 -13 13 -12 22 -25 20 -29z m-4739 -2980 c-3 -24
-16 -83 -29 -133 -13 -49 -49 -208 -80 -353 -119 -563 -163 -941 -137 -1192 7
-69 11 -140 10 -159 -3 -34 -4 -35 -52 -37 l-49 -3 7 107 c3 59 13 178 22 266
10 99 12 162 6 168 -11 11 -17 -11 -27 -94 -11 -91 -25 -68 -25 40 1 164 42
415 117 717 52 210 176 594 202 627 10 13 22 38 25 56 11 46 17 40 10 -10z
m23705 -460 c20 -12 113 -72 206 -133 94 -61 240 -151 325 -200 165 -94 424
-257 449 -283 8 -8 16 -22 17 -31 2 -9 26 -37 56 -63 55 -49 61 -67 14 -43
-16 8 -35 15 -42 15 -8 0 -14 5 -14 10 0 6 -8 10 -18 10 -10 0 -23 5 -30 12
-7 7 -12 8 -12 2 0 -5 22 -25 49 -44 27 -19 48 -37 46 -39 -8 -7 -211 113
-380 224 -93 62 -180 117 -192 124 -13 6 -22 15 -22 19 3 22 -17 54 -49 75
-173 114 -437 311 -438 326 -1 10 -4 23 -8 30 -11 17 3 13 43 -11z m-11225
-849 c14 -85 34 -248 46 -363 12 -116 26 -218 31 -227 14 -27 11 -39 -11 -39
-15 0 -20 7 -20 28 0 15 -12 108 -25 207 -23 161 -54 470 -55 534 0 53 11 8
34 -140z m-460 -257 c34 -143 66 -305 66 -332 0 -19 -4 -21 -57 -18 l-58 3 -6
145 c-4 80 -14 183 -23 230 -22 118 -19 137 9 55 l25 -70 -6 54 c-3 30 -8 68
-11 85 -5 31 -5 30 15 -7 11 -21 32 -87 46 -145z m-5173 -338 c20 -12 -4 -33
-31 -27 -20 3 -40 -1 -63 -16 -36 -22 -52 -27 -43 -12 10 16 -38 21 -55 5 -11
-10 -28 -14 -48 -11 -17 3 -31 1 -31 -4 0 -12 -27 -12 -32 0 -1 5 -12 11 -23
13 -11 1 -26 9 -33 16 -8 7 -18 10 -23 7 -5 -4 -9 -2 -9 4 0 5 -3 17 -7 27 -6
16 6 17 192 10 109 -3 201 -9 206 -12z m-3366 -264 c-4 -7 79 -10 242 -11 136
-1 237 -4 223 -6 -14 -3 -29 -9 -34 -14 -23 -21 -823 -5 -906 19 -14 4 61 9
165 12 105 3 218 7 253 8 40 1 61 -2 57 -8z m-4385 -601 c0 -5 5 -7 10 -4 16
10 50 -5 50 -21 0 -8 -6 -14 -12 -14 -8 0 -5 -7 6 -15 15 -11 16 -15 5 -16
-10 0 -10 -2 -1 -6 6 -2 12 -14 12 -24 0 -11 -4 -17 -10 -14 -5 3 -10 1 -10
-4 0 -6 4 -11 8 -11 5 0 13 -12 18 -27 8 -22 10 -14 6 40 -3 54 -1 67 11 67 9
0 17 -14 21 -37 10 -64 19 -368 10 -360 -4 4 -16 65 -26 135 -12 88 -16 106
-13 57 2 -44 0 -63 -5 -50 -8 18 -9 16 -9 -8 -1 -16 4 -82 10 -148 11 -125 6
-176 -13 -129 -6 15 -12 20 -15 13 -3 -7 -9 -13 -15 -13 -6 0 -4 7 3 17 17 20
15 124 -5 268 -8 55 -18 142 -21 193 -5 66 -11 95 -21 99 -16 6 -19 23 -4 23
6 0 10 -5 10 -11z m18990 -469 c58 -3 96 -7 86 -8 -44 -4 1 -17 77 -22 45 -3
-141 -6 -413 -7 -272 -1 -529 -7 -570 -12 -111 -14 -201 -19 -547 -27 -229 -5
-313 -4 -313 4 0 8 71 11 248 11 173 -1 262 3 297 12 45 11 47 14 25 20 -24 7
-24 7 5 8 22 1 26 4 15 11 -10 6 2 10 40 13 100 6 943 5 1050 -3z m8424 -47
c3 -4 -13 -27 -36 -51 -27 -29 -36 -42 -23 -37 40 15 79 25 83 21 2 -2 -5 -21
-16 -43 -14 -27 -56 -65 -148 -134 -136 -100 -319 -231 -407 -288 -12 -8 21
27 73 78 109 106 102 110 -15 6 -152 -135 -454 -368 -416 -322 7 9 10 17 6 17
-16 0 106 128 219 229 204 182 278 242 293 237 8 -3 51 30 106 82 116 110 194
175 232 195 36 18 40 19 49 10z m-21225 -2174 c3 -29 5 -31 12 -14 6 12 7 -9
3 -55 -4 -41 -9 -250 -13 -465 -5 -327 -7 -368 -13 -255 -4 74 -10 292 -13
483 -4 280 -3 348 7 345 7 -3 15 -20 17 -39z"/>
<path d="M30135 20049 c-71 -15 -224 -44 -340 -64 -418 -71 -682 -150 -820
-245 l-47 -32 22 -23 c57 -61 226 -125 403 -154 l102 -17 8 -54 c15 -94 1
-292 -34 -485 l-10 -60 -197 -63 c-200 -65 -848 -293 -877 -309 -12 -7 20 -28
132 -85 171 -87 291 -136 436 -177 99 -28 293 -64 410 -76 68 -8 67 -5 10
-125 -31 -64 -55 -94 -163 -200 -173 -172 -510 -460 -537 -460 -6 0 -22 33
-38 73 -206 535 -594 1311 -805 1610 -82 116 -209 244 -275 276 -62 31 -152
41 -161 18 -3 -9 -14 -71 -23 -139 l-18 -123 53 -267 c122 -615 234 -964 338
-1058 134 -121 190 -178 276 -281 108 -129 271 -345 434 -575 l107 -151 88
-41 c230 -105 370 -137 571 -129 74 3 147 9 162 13 l27 6 -20 -38 c-16 -30
-19 -51 -15 -91 5 -59 11 -54 -89 -73 -112 -22 -336 -81 -443 -116 -316 -106
-548 -259 -640 -423 l-23 -40 43 -27 c102 -65 252 -131 395 -175 86 -26 99
-34 203 -120 60 -51 109 -93 107 -95 -1 -1 -133 -59 -292 -129 -331 -144 -369
-164 -396 -208 -49 -81 -17 -151 149 -320 l129 -130 169 12 c304 22 641 61
974 115 152 24 518 62 526 54 2 -2 -67 -37 -154 -77 -338 -158 -672 -325 -664
-333 12 -12 313 -58 427 -65 68 -4 142 0 230 11 242 31 789 116 915 142 218
45 416 120 563 212 47 31 59 44 68 77 11 39 7 185 -6 215 -3 8 -52 47 -107 85
-309 212 -286 199 -408 233 -167 46 -296 63 -557 70 l-232 7 92 57 c145 89
314 210 454 325 172 143 380 353 417 422 77 144 44 237 -111 313 l-68 33 -250
7 c-137 4 -293 10 -345 13 -52 4 -126 3 -165 -3 -50 -7 -72 -6 -77 2 -16 23
-8 129 12 171 19 39 26 44 192 117 152 68 175 75 193 64 136 -88 293 -160 432
-198 62 -17 107 -22 219 -22 139 -1 141 -1 182 28 81 56 237 230 325 363 147
220 246 426 371 768 205 557 305 928 291 1070 -19 187 -108 343 -291 512 -475
439 -781 563 -1484 603 -257 14 -327 11 -475 -21z m1289 -650 c31 -33 66 -79
77 -102 20 -38 21 -46 9 -112 -17 -97 -73 -321 -108 -435 -111 -356 -251 -617
-433 -805 l-87 -89 -74 36 c-52 26 -92 56 -137 103 -34 36 -67 65 -72 65 -13
0 -42 -68 -71 -163 -21 -74 -25 -81 -67 -105 -64 -37 -160 -70 -231 -78 l-63
-7 6 49 c3 27 11 114 17 194 6 80 13 177 16 217 l6 71 63 31 c75 37 151 103
194 168 32 48 71 157 71 197 0 17 -55 72 -204 207 -129 116 -203 190 -200 199
11 43 24 171 30 299 l7 143 56 -6 c31 -3 196 -9 366 -12 334 -7 508 3 630 35
l70 18 36 -29 c20 -15 62 -55 93 -89z m-2038 -1645 c13 -49 -1 -187 -23 -229
l-21 -41 -203 -36 c-112 -20 -205 -36 -206 -34 -6 6 218 221 277 264 67 50
149 102 162 102 4 0 11 -12 14 -26z m-38 -1921 c4 -40 -27 -101 -70 -139 -19
-16 -71 -51 -117 -78 l-83 -49 -41 23 c-120 66 -303 218 -284 236 7 8 493 43
557 40 32 -1 35 -4 38 -33z"/>
<path d="M21870 19393 c-431 -143 -917 -277 -1246 -342 -248 -50 -614 -87
-1084 -111 -206 -10 -980 -30 -1207 -30 -122 0 -123 0 -123 -23 0 -24 41 -88
76 -118 43 -38 321 -196 489 -279 99 -48 246 -113 326 -144 262 -100 682 -201
1128 -271 84 -13 155 -26 157 -28 2 -2 -85 -109 -193 -238 -108 -129 -316
-378 -462 -554 -630 -760 -1656 -1873 -2160 -2343 -424 -394 -923 -711 -1398
-887 l-102 -38 17 -30 c27 -49 169 -194 257 -262 105 -82 190 -128 300 -161
81 -25 105 -28 250 -28 178 -1 239 10 401 71 71 27 111 51 185 109 162 129
246 212 348 342 126 162 198 238 529 560 l270 263 89 -123 c395 -547 767 -886
1095 -998 121 -41 159 -44 284 -25 164 24 150 17 163 82 6 32 14 99 18 149 l6
90 -46 108 c-60 142 -116 233 -191 314 -114 122 -326 386 -326 406 0 6 152
124 206 158 82 53 243 127 360 167 187 63 378 101 622 121 164 14 717 132
1286 276 54 14 100 23 103 20 7 -7 -223 -261 -367 -406 -192 -193 -405 -332
-870 -568 -289 -147 -357 -190 -441 -278 -104 -111 -126 -192 -89 -340 41
-169 124 -306 216 -360 98 -58 649 -148 1054 -173 91 -6 242 -16 335 -23 94
-7 307 -13 475 -13 325 0 424 11 511 55 85 44 105 132 55 235 -36 72 -120 178
-189 237 -143 123 -389 258 -590 324 -64 21 -117 41 -116 44 0 3 48 42 107 87
276 210 610 545 881 883 65 81 134 150 229 232 163 140 191 183 192 287 0 91
-24 134 -133 237 -180 170 -361 284 -507 320 -82 21 -215 15 -492 -20 -488
-63 -1069 -185 -1407 -296 -462 -151 -971 -507 -1416 -990 -72 -77 -133 -136
-139 -132 -6 3 -67 43 -136 87 -135 87 -248 154 -347 204 -35 17 -63 34 -63
37 0 3 312 321 693 707 785 795 908 922 1202 1236 591 632 1135 1125 1660
1505 108 78 122 92 142 139 14 32 23 73 23 108 0 49 -5 64 -41 120 -142 220
-311 351 -498 385 -42 7 -83 13 -91 13 -8 -1 -130 -39 -270 -86z"/>
<path d="M39883 19473 c-28 -6 -45 -26 -37 -47 19 -50 697 -548 900 -662 l66
-37 262 -18 c143 -10 270 -18 281 -19 12 0 -11 -17 -55 -41 -113 -61 -256
-159 -344 -236 -43 -37 -102 -86 -130 -107 -100 -77 -293 -231 -399 -319
l-108 -89 -57 54 c-119 113 -464 376 -544 415 -57 27 -132 40 -142 25 -14 -23
121 -345 250 -597 l81 -160 -61 -45 c-98 -72 -343 -270 -445 -361 -87 -77 -98
-84 -160 -96 -36 -7 -160 -17 -276 -22 -218 -9 -251 -15 -316 -62 -92 -65 -96
-228 -8 -414 31 -65 215 -235 256 -235 16 0 415 125 778 244 143 47 261 83
264 80 7 -7 -19 -189 -50 -349 -36 -183 -87 -377 -144 -552 -204 -621 -611
-1337 -873 -1535 -89 -68 -133 -78 -336 -78 l-170 0 39 -41 c25 -25 78 -59
143 -91 l103 -51 117 6 c356 17 684 157 940 401 347 332 648 973 902 1923 43
160 51 207 66 383 10 110 21 205 24 210 8 12 128 34 305 56 129 16 514 34 520
24 5 -8 -13 -1154 -25 -1545 -36 -1222 -46 -1432 -70 -1483 -48 -99 -129 -382
-148 -516 l-21 -139 50 -140 c93 -259 198 -487 263 -573 53 -71 148 -152 256
-218 63 -39 82 -46 125 -46 199 1 300 224 312 690 5 213 -4 366 -77 1330 l-30
395 2 1125 3 1125 80 -3 c44 -2 141 -10 215 -18 399 -43 956 -66 1090 -45 214
34 269 131 175 310 -103 195 -446 387 -757 423 -89 11 -107 10 -225 -13 -106
-20 -159 -24 -310 -24 -100 0 -184 3 -188 7 -4 3 1 74 9 157 9 83 16 204 16
269 0 111 -2 120 -27 157 -76 114 -182 210 -309 281 -36 20 -64 38 -62 40 2 2
44 17 93 34 96 33 260 112 336 161 25 16 77 40 115 53 181 61 276 136 304 238
13 46 -3 154 -29 207 -71 138 -257 211 -537 211 -120 0 -652 -77 -1102 -161
l-163 -30 -477 96 c-262 52 -484 94 -492 94 -8 -1 -25 -4 -37 -6z m1537 -1199
c50 -45 102 -151 124 -253 20 -86 32 -278 22 -342 l-7 -45 -179 -17 c-173 -17
-719 -82 -770 -92 -22 -4 -29 3 -60 56 -19 33 -52 76 -73 96 l-39 35 24 25
c73 78 293 243 456 342 99 60 435 231 453 231 5 0 27 -16 49 -36z"/>
<path d="M38060 19038 c-47 -18 -77 -43 -201 -169 l-147 -148 -83 -21 c-204
-52 -412 -71 -563 -51 -139 19 -564 98 -741 138 -88 20 -170 38 -182 41 -13 2
-23 0 -23 -5 0 -5 28 -52 62 -104 143 -217 499 -513 785 -652 98 -48 119 -54
246 -72 l140 -20 -135 -181 c-516 -690 -1159 -1373 -1846 -1963 -46 -39 -85
-71 -86 -71 -2 0 -33 20 -70 44 -135 91 -248 66 -343 -76 -68 -102 -153 -330
-153 -412 0 -139 118 -352 293 -528 99 -100 164 -138 236 -138 50 0 57 3 90
38 33 34 460 521 675 770 49 56 92 102 96 102 9 0 91 -251 126 -385 20 -79 40
-124 91 -210 286 -481 622 -739 974 -748 85 -2 87 -1 144 37 125 83 247 152
416 237 266 133 416 242 562 407 98 112 165 217 260 408 95 190 159 303 257
449 104 156 138 236 125 295 -9 39 -146 176 -239 238 -127 85 -167 96 -336 97
-244 0 -424 -53 -835 -250 -317 -151 -644 -373 -907 -614 -36 -33 -69 -61 -73
-61 -3 0 -89 75 -191 166 -160 145 -183 169 -172 183 158 202 767 889 1192
1346 627 672 959 995 1171 1138 135 91 175 138 175 206 0 44 -3 47 -92 134
-178 171 -378 319 -529 392 -85 40 -95 41 -169 13z m-62 -3354 l30 -6 -32 -77
c-100 -232 -198 -392 -317 -516 -165 -172 -321 -233 -439 -172 -59 30 -100
104 -107 190 -10 119 67 288 180 399 103 99 188 148 302 173 62 14 329 20 383
9z"/>
<path d="M32240 14169 c-366 -31 -1073 -257 -1766 -565 -241 -106 -662 -276
-891 -359 l-131 -47 -109 62 c-59 35 -184 113 -278 174 -291 191 -461 285
-600 331 -73 24 -215 52 -334 65 -106 12 -469 3 -889 -21 -100 -5 -186 -8
-191 -5 -5 3 -12 18 -16 33 -3 15 -15 39 -26 55 -39 55 -57 58 -312 58 -200 0
-245 -3 -311 -20 -159 -40 -276 -131 -375 -290 -66 -108 -66 -135 5 -242 115
-172 312 -396 378 -428 113 -54 268 -10 454 130 70 52 164 150 190 196 12 21
897 314 948 314 95 0 253 -56 379 -135 56 -35 90 -68 175 -172 135 -165 450
-481 564 -566 186 -137 345 -207 481 -210 59 -1 80 4 137 30 99 46 236 128
473 283 266 175 419 263 723 416 225 114 264 130 549 225 l306 102 106 -6
c119 -7 237 -34 436 -103 150 -51 179 -69 183 -112 5 -46 -42 -76 -198 -128
-136 -45 -367 -151 -390 -179 -9 -11 -8 -20 9 -44 59 -83 284 -131 681 -146
168 -7 185 -5 410 29 309 46 479 65 680 76 198 10 258 25 314 81 l39 40 -6 87
c-14 191 -96 343 -261 481 -197 166 -411 268 -763 365 -103 29 -564 134 -656
150 -12 2 -65 0 -117 -5z"/>
<path d="M7308 13930 c-77 -22 -317 -111 -398 -147 -66 -29 -257 -101 -355
-133 -103 -34 -466 -190 -650 -280 -235 -115 -309 -157 -520 -297 -188 -124
-212 -142 -268 -208 -30 -35 -57 -62 -59 -59 -3 2 -5 -3 -5 -11 0 -8 2 -15 3
-15 11 0 124 67 167 98 174 126 478 312 510 312 10 0 15 4 12 10 -4 6 1 7 11
3 13 -5 15 -3 9 7 -5 8 -4 11 2 7 5 -3 52 19 103 49 139 83 207 115 226 107
13 -5 15 -3 9 7 -5 8 -4 11 2 7 6 -4 57 18 114 47 153 80 358 168 536 231 87
31 226 82 308 114 83 32 192 73 243 91 77 27 93 36 89 51 -3 10 0 20 7 23 30
12 -37 2 -96 -14z"/>
<path d="M31230 9960 l0 -110 315 0 315 0 0 -855 0 -855 130 0 130 0 0 855 0
855 320 0 320 0 0 110 0 110 -765 0 -765 0 0 -110z"/>
<path d="M34500 9105 l0 -965 114 0 114 0 5 443 c4 366 8 453 21 507 30 118
88 189 196 239 48 23 68 26 160 26 89 0 111 -3 145 -22 53 -28 89 -68 117
-128 23 -50 23 -52 26 -557 l3 -508 120 0 121 0 -5 528 c-4 568 -5 583 -59
687 -28 54 -82 109 -138 143 -94 55 -252 82 -375 63 -89 -14 -213 -74 -279
-135 -27 -26 -51 -46 -53 -46 -2 0 -3 155 -3 345 l0 345 -115 0 -115 0 0 -965z"/>
<path d="M37510 9105 l0 -965 120 0 120 0 0 278 0 278 84 77 84 76 229 -352
229 -352 147 -3 148 -3 -290 435 c-160 239 -291 438 -291 442 1 5 119 124 265
264 l263 255 -151 3 -151 3 -283 -283 -283 -283 0 548 0 547 -120 0 -120 0 0
-965z"/>
<path d="M41160 9437 c0 -650 4 -741 41 -877 59 -219 212 -368 434 -425 221
-57 507 -38 680 45 193 92 299 238 346 475 8 41 13 275 16 738 l4 677 -130 0
-130 0 -3 -677 c-4 -737 -3 -718 -62 -849 -63 -138 -211 -207 -446 -208 -168
0 -267 33 -361 121 -57 53 -92 121 -116 218 -14 60 -17 161 -20 733 l-5 662
-124 0 -124 0 0 -633z"/>
<path d="M44580 9935 l0 -135 120 0 120 0 0 135 0 135 -120 0 -120 0 0 -135z"/>
<path d="M33455 9561 c-87 -15 -138 -32 -219 -74 -108 -56 -190 -140 -244
-249 -64 -129 -76 -193 -77 -403 0 -204 12 -266 72 -395 52 -109 161 -217 274
-269 107 -50 163 -61 302 -61 135 0 201 15 317 72 162 78 273 224 317 413 14
61 18 120 18 250 -1 196 -12 252 -77 385 -73 151 -222 272 -385 314 -75 20
-228 28 -298 17z m267 -223 c75 -34 148 -104 186 -177 49 -90 66 -176 65 -326
-1 -206 -45 -337 -145 -431 -68 -64 -145 -97 -239 -102 -133 -8 -223 30 -316
132 -58 63 -88 131 -109 246 -26 144 -12 317 36 442 23 63 100 155 161 194 97
61 255 71 361 22z"/>
<path d="M36465 9561 c-87 -15 -138 -32 -219 -74 -108 -56 -190 -140 -244
-249 -64 -129 -76 -193 -77 -403 0 -204 12 -266 72 -395 52 -109 161 -217 274
-269 107 -50 163 -61 302 -61 135 0 201 15 317 72 162 78 273 224 317 413 14
61 18 120 18 250 -1 196 -12 252 -77 385 -73 151 -222 272 -385 314 -75 20
-228 28 -298 17z m267 -223 c75 -34 148 -104 186 -177 49 -90 66 -176 65 -326
-1 -206 -45 -337 -145 -431 -68 -64 -145 -97 -239 -102 -133 -8 -223 30 -316
132 -58 63 -88 131 -109 246 -26 144 -12 317 36 442 23 63 100 155 161 194 97
61 255 71 361 22z"/>
<path d="M43665 9564 c-11 -2 -45 -9 -75 -15 -81 -16 -167 -65 -237 -136 l-63
-63 0 95 0 95 -105 0 -105 0 0 -700 0 -700 114 0 114 0 4 453 c4 419 6 457 25
519 27 90 62 140 127 184 69 46 132 64 221 64 93 0 155 -22 208 -74 82 -79 81
-73 85 -643 l3 -503 115 0 114 0 0 528 c0 574 -1 592 -57 694 -36 65 -90 113
-177 154 -90 42 -229 64 -311 48z"/>
<path d="M38860 9043 c0 -281 5 -528 10 -568 34 -235 202 -365 470 -365 163 0
259 39 373 151 l67 67 0 -94 0 -94 105 0 105 0 0 700 0 700 -114 0 -115 0 -3
-462 c-4 -447 -5 -465 -26 -530 -90 -270 -497 -328 -602 -86 -30 69 -38 216
-39 711 l-1 367 -115 0 -115 0 0 -497z"/>
<path d="M44580 8840 l0 -700 120 0 120 0 0 700 0 700 -120 0 -120 0 0 -700z"/>
<path d="M45250 8270 l0 -130 135 0 135 0 0 130 0 130 -135 0 -135 0 0 -130z"/>
<path d="M31420 6085 l0 -965 130 0 130 0 0 965 0 965 -130 0 -130 0 0 -965z"/>
<path d="M33450 6085 l0 -965 119 0 120 0 3 458 c4 438 5 460 26 522 25 77 54
118 114 165 61 48 145 75 233 75 135 0 221 -54 266 -166 24 -59 24 -61 27
-556 l3 -498 115 0 114 0 0 503 c0 297 -4 528 -11 567 -21 136 -91 237 -206
297 -82 43 -152 57 -273 56 -151 -1 -257 -43 -362 -141 l-48 -45 0 347 0 346
-120 0 -120 0 0 -965z"/>
<path d="M34960 6915 l0 -135 120 0 120 0 0 135 0 135 -120 0 -120 0 0 -135z"/>
<path d="M41750 6085 l0 -965 605 0 605 0 0 110 0 110 -475 0 -475 0 0 855 0
855 -130 0 -130 0 0 -965z"/>
<path d="M44740 6085 l0 -965 110 0 110 0 0 86 0 87 33 -42 c50 -64 131 -119
208 -142 58 -18 88 -20 177 -17 119 5 176 21 265 75 148 90 250 242 292 438
25 113 25 335 2 437 -72 309 -251 478 -532 503 -137 13 -266 -31 -369 -125
l-56 -52 0 341 0 341 -120 0 -120 0 0 -965z m741 237 c104 -51 184 -166 214
-308 19 -90 19 -298 0 -389 -43 -204 -192 -345 -365 -345 -93 0 -164 31 -235
104 -99 100 -124 173 -132 386 -9 229 28 359 131 469 82 86 143 111 261 108
59 -2 92 -8 126 -25z"/>
<path d="M32449 6539 c-132 -19 -252 -78 -313 -153 -70 -85 -81 -120 -81 -241
0 -100 2 -115 27 -160 66 -125 171 -182 493 -265 196 -51 269 -78 303 -111
106 -104 22 -282 -149 -318 -71 -16 -185 -13 -254 4 -110 28 -192 108 -222
217 -16 56 -18 59 -42 55 -14 -3 -64 -11 -110 -18 -53 -8 -85 -18 -89 -27 -3
-8 3 -40 13 -71 59 -189 185 -306 374 -346 94 -20 305 -20 388 0 243 57 395
236 381 450 -9 134 -78 236 -204 295 -46 22 -564 180 -590 180 -15 0 -85 78
-94 105 -26 78 38 169 141 199 69 21 219 21 288 0 71 -21 144 -92 164 -160 8
-27 18 -49 23 -49 5 0 57 6 116 14 l107 14 -6 31 c-10 53 -42 131 -73 179 -89
134 -350 212 -591 176z"/>
<path d="M35954 6536 c-260 -50 -438 -277 -474 -607 -25 -228 25 -434 144
-597 53 -71 111 -120 191 -160 78 -39 144 -52 259 -52 147 0 258 43 347 135
19 19 38 35 43 35 13 0 -3 -252 -19 -308 -20 -66 -69 -137 -119 -171 -78 -54
-216 -80 -329 -61 -130 21 -206 75 -232 165 l-15 52 -98 12 c-53 7 -105 14
-114 17 -15 4 -18 -1 -18 -33 0 -58 24 -146 53 -195 88 -151 276 -226 542
-216 110 5 143 10 215 35 203 70 316 198 356 403 14 73 17 188 21 808 l4 722
-110 0 -111 0 0 -87 0 -87 -42 43 c-57 58 -132 107 -200 131 -75 26 -204 33
-294 16z m288 -218 c113 -53 197 -167 229 -313 21 -94 16 -294 -10 -389 -27
-101 -56 -150 -126 -214 -91 -83 -216 -111 -335 -76 -65 19 -92 35 -148 88
-91 85 -132 217 -132 420 0 197 33 306 122 402 77 84 153 115 268 111 56 -2
89 -9 132 -29z"/>
<path d="M39023 6540 c-79 -19 -141 -72 -212 -184 l-31 -50 0 107 0 107 -105
0 -105 0 0 -700 0 -700 114 0 114 0 5 428 c6 452 10 501 58 613 23 53 73 103
125 125 49 21 144 17 209 -7 31 -12 58 -19 59 -17 5 7 76 201 76 208 0 13
-119 61 -177 70 -66 11 -85 11 -130 0z"/>
<path d="M39935 6541 c-87 -15 -138 -32 -219 -74 -108 -56 -190 -140 -244
-249 -64 -129 -76 -193 -77 -403 0 -204 12 -266 72 -395 52 -109 161 -217 274
-269 107 -50 163 -61 302 -61 135 0 201 15 317 72 162 78 273 224 317 413 14
61 18 120 18 250 -1 196 -12 252 -77 385 -73 151 -222 272 -385 314 -75 20
-228 28 -298 17z m267 -223 c75 -34 148 -104 186 -177 49 -90 66 -176 65 -326
-1 -206 -45 -337 -145 -431 -68 -64 -145 -97 -239 -102 -133 -8 -223 30 -316
132 -58 63 -88 131 -109 246 -26 144 -12 317 36 442 23 63 100 155 161 194 97
61 255 71 361 22z"/>
<path d="M43699 6540 c-164 -21 -296 -77 -374 -162 -51 -53 -113 -176 -117
-229 l-3 -33 80 -12 c143 -22 139 -23 165 46 50 135 137 190 310 198 250 11
367 -69 378 -258 l5 -80 -29 -11 c-53 -20 -197 -47 -386 -74 -103 -14 -216
-34 -250 -45 -136 -42 -236 -125 -290 -238 -18 -39 -22 -65 -22 -157 -1 -102
1 -114 28 -169 53 -108 160 -188 284 -215 76 -16 265 -14 341 4 84 20 172 63
263 128 l74 53 12 -64 c20 -106 14 -102 153 -102 112 0 121 1 114 18 -42 99
-47 138 -56 397 -4 143 -8 355 -8 471 -1 226 -10 281 -56 353 -51 82 -139 138
-257 166 -78 18 -271 26 -359 15z m431 -924 c-27 -173 -127 -281 -302 -327
-180 -47 -340 -1 -393 114 -42 88 -28 168 39 232 52 50 100 66 326 104 96 17
211 40 255 53 l80 23 3 -64 c2 -36 -2 -96 -8 -135z"/>
<path d="M34960 5820 l0 -700 120 0 120 0 0 700 0 700 -120 0 -120 0 0 -700z"/>
<path d="M37062 5983 c4 -523 5 -540 26 -605 31 -93 76 -156 147 -203 86 -58
151 -77 276 -83 182 -7 278 27 399 145 41 40 76 73 77 73 2 0 3 -43 3 -95 l0
-95 105 0 105 0 0 700 0 700 -120 0 -120 0 0 -437 c0 -478 -5 -529 -57 -624
-50 -92 -165 -159 -287 -167 -133 -8 -229 41 -281 142 l-30 60 -3 513 -3 513
-120 0 -121 0 4 -537z"/>
<path d="M46310 5250 l0 -130 135 0 135 0 0 130 0 130 -135 0 -135 0 0 -130z"/>
<path d="M14323 2597 c-23 -25 -240 -207 -323 -269 -43 -33 -57 -48 -44 -49
10 0 38 -1 62 -2 28 -1 42 2 42 11 0 6 5 12 10 12 6 0 9 12 8 28 -3 26 -1 27
40 26 37 -1 42 1 36 19 -5 17 -2 18 25 12 24 -5 31 -3 31 9 0 9 -7 16 -16 16
-8 0 -12 4 -9 10 3 5 20 10 38 10 127 0 137 2 137 16 0 8 -4 14 -10 14 -5 0
-10 6 -10 14 0 9 8 12 25 8 14 -2 25 0 25 7 0 5 -6 8 -12 6 -16 -6 -45 11 -35
21 4 4 22 8 41 8 19 1 39 6 43 10 4 5 1 7 -8 4 -27 -10 -43 6 -30 31 10 18 9
21 -11 21 -21 0 -21 1 -3 14 18 13 17 14 -8 14 -14 0 -34 -10 -44 -21z"/>
</g>
</svg>
